<svg xmlns="http://www.w3.org/2000/svg" xmlns:xlink="http://www.w3.org/1999/xlink" viewBox="0 0 137.958 208.461">
  <defs>
    <style>
      .cls-1, .cls-11, .cls-24, .cls-25, .cls-28, .cls-29, .cls-3, .cls-5 {
        fill: none;
      }

      .cls-2 {
        clip-path: url(#clip-path);
      }

      .cls-3 {
        stroke: #3a2213;
      }

      .cls-29, .cls-3 {
        stroke-width: 3px;
      }

      .cls-4 {
        fill: #a66122;
      }

      .cls-11, .cls-24, .cls-28, .cls-5, .cls-9 {
        stroke: #221f1f;
      }

      .cls-24, .cls-25, .cls-28, .cls-29, .cls-5 {
        stroke-linecap: round;
        stroke-linejoin: round;
      }

      .cls-11, .cls-5, .cls-9 {
        stroke-width: 2px;
      }

      .cls-6 {
        opacity: 0.31;
      }

      .cls-7 {
        clip-path: url(#clip-path-2);
      }

      .cls-8 {
        fill: #3a2213;
      }

      .cls-10, .cls-9 {
        fill: #efaa43;
      }

      .cls-12 {
        opacity: 0.45;
      }

      .cls-13 {
        clip-path: url(#clip-path-3);
      }

      .cls-14 {
        clip-path: url(#clip-path-4);
      }

      .cls-15 {
        fill: #f8d162;
      }

      .cls-16 {
        fill: #854f1b;
      }

      .cls-17 {
        fill: #fdd6c0;
      }

      .cls-18 {
        opacity: 0.42;
      }

      .cls-19 {
        clip-path: url(#clip-path-5);
      }

      .cls-20 {
        fill: #f8a978;
      }

      .cls-21 {
        fill: #ffece0;
      }

      .cls-22 {
        fill: #d09912;
      }

      .cls-23 {
        fill: #ffca06;
      }

      .cls-25, .cls-29 {
        stroke: #000;
      }

      .cls-25 {
        stroke-width: 1.5px;
      }

      .cls-26 {
        fill: #f79d7e;
      }

      .cls-27 {
        fill: #8e541e;
      }

      .cls-28 {
        stroke-width: 2.905px;
      }
    </style>
    <clipPath id="clip-path">
      <path id="Path_197" data-name="Path 197" class="cls-1" d="M0-208.461H137.958V0H0Z"/>
    </clipPath>
    <clipPath id="clip-path-2">
      <rect id="Rectangle_346" data-name="Rectangle 346" class="cls-1" width="17.925" height="17.925" transform="translate(1 -57.167)"/>
    </clipPath>
    <clipPath id="clip-path-3">
      <rect id="Rectangle_347" data-name="Rectangle 347" class="cls-1" width="35.3" height="62.259" transform="translate(36.383 -63.259)"/>
    </clipPath>
    <clipPath id="clip-path-4">
      <rect id="Rectangle_348" data-name="Rectangle 348" class="cls-1" width="21.912" height="11.048" transform="translate(84.817 -12.048)"/>
    </clipPath>
    <clipPath id="clip-path-5">
      <rect id="Rectangle_349" data-name="Rectangle 349" class="cls-1" width="91.674" height="67.748" transform="translate(30.324 -159.584)"/>
    </clipPath>
  </defs>
  <g id="Group_448" data-name="Group 448" transform="translate(0 208.461)">
    <g id="Group_436" data-name="Group 436" class="cls-2">
      <g id="Group_369" data-name="Group 369" transform="translate(61.176 -33.2)">
        <path id="Path_142" data-name="Path 142" class="cls-3" d="M0,0S-30.088,22.406-48.013-7.682"/>
      </g>
      <g id="Group_370" data-name="Group 370" transform="translate(18.925 -48.204)">
        <path id="Path_143" data-name="Path 143" class="cls-4" d="M0,0A8.963,8.963,0,0,1-8.962,8.962,8.963,8.963,0,0,1-17.925,0,8.963,8.963,0,0,1-8.962-8.963,8.963,8.963,0,0,1,0,0"/>
      </g>
      <g id="Group_371" data-name="Group 371" transform="translate(18.925 -48.204)">
        <path id="Path_144" data-name="Path 144" class="cls-5" d="M0,0A8.963,8.963,0,0,1-8.962,8.962,8.963,8.963,0,0,1-17.925,0,8.963,8.963,0,0,1-8.962-8.963,8.963,8.963,0,0,1,0,0Z"/>
      </g>
      <g id="Group_375" data-name="Group 375" class="cls-6">
        <g id="Group_374" data-name="Group 374">
          <g id="Group_373" data-name="Group 373" class="cls-7">
            <g id="Group_372" data-name="Group 372" transform="translate(11.712 -42.742)">
              <path id="Path_145" data-name="Path 145" class="cls-8" d="M0,0A7.212,7.212,0,0,1-7.212-7.212a7.21,7.21,0,0,1,6.4-7.163,9.031,9.031,0,0,0-.935-.05,8.962,8.962,0,0,0-8.962,8.963A8.962,8.962,0,0,0-1.75,3.5,8.962,8.962,0,0,0,7.212-5.462,9.017,9.017,0,0,0,7.163-6.4,7.211,7.211,0,0,1,0,0"/>
            </g>
          </g>
        </g>
      </g>
      <g id="Group_376" data-name="Group 376" transform="translate(71.396 -9.47)">
        <path id="Path_146" data-name="Path 146" class="cls-9" d="M0,0,.318-2.648v-5.16A4.064,4.064,0,0,1,4.37-11.86H9.29a4.064,4.064,0,0,1,4.051,4.052v5.16L13.665,0a8.5,8.5,0,0,0,8.47,8.47h4.971A8.5,8.5,0,0,0,35.577,0V-37.891c4.459,3.83,8.188,1.254,8.188,1.254,10.8-6.035,3.176-17.152,3.176-17.152L37.094-65.225l-3.048-7.523a4.022,4.022,0,0,0-2.522-.889h-49.39a4.012,4.012,0,0,0-2.042.561l-2.645,7.851L-32.4-53.789s-7.623,11.117,3.176,17.152c0,0,3.248,2.244,7.307-.569V-6.7c0,.041,0,.081,0,.122V0a8.5,8.5,0,0,0,8.47,8.47H-8.47A8.5,8.5,0,0,0,0,0"/>
      </g>
      <g id="Group_377" data-name="Group 377" transform="translate(114.266 -166.447)">
        <path id="Path_147" data-name="Path 147" class="cls-10" d="M0,0C0-.032,0-.063,0-.1a9.1,9.1,0,0,1,9.1-9.1,9.1,9.1,0,0,1,9.1,9.1A9.1,9.1,0,0,1,9.249,9S-8.4,19.147,0,0"/>
      </g>
      <g id="Group_378" data-name="Group 378" transform="translate(114.266 -166.447)">
        <path id="Path_148" data-name="Path 148" class="cls-11" d="M0,0C0-.032,0-.063,0-.1a9.1,9.1,0,0,1,9.1-9.1,9.1,9.1,0,0,1,9.1,9.1A9.1,9.1,0,0,1,9.249,9S-8.4,19.147,0,0Z"/>
      </g>
      <g id="Group_379" data-name="Group 379" transform="translate(118.668 -170.677)">
        <path id="Path_149" data-name="Path 149" class="cls-4" d="M0,0A5.971,5.971,0,0,1,8.445,8.444"/>
      </g>
      <g id="Group_380" data-name="Group 380" transform="translate(37.07 -166.447)">
        <path id="Path_150" data-name="Path 150" class="cls-10" d="M0,0C0-.032,0-.063,0-.1a9.1,9.1,0,0,0-9.1-9.1,9.1,9.1,0,0,0-9.1,9.1A9.1,9.1,0,0,0-9.249,9S9.407,19.813,0,0"/>
      </g>
      <g id="Group_381" data-name="Group 381" transform="translate(37.07 -166.447)">
        <path id="Path_151" data-name="Path 151" class="cls-11" d="M0,0C0-.032,0-.063,0-.1a9.1,9.1,0,0,0-9.1-9.1,9.1,9.1,0,0,0-9.1,9.1A9.1,9.1,0,0,0-9.249,9S9.407,19.813,0,0Z"/>
      </g>
      <g id="Group_382" data-name="Group 382" transform="translate(32.667 -170.677)">
        <path id="Path_152" data-name="Path 152" class="cls-4" d="M0,0A5.972,5.972,0,0,0-8.445,0a5.97,5.97,0,0,0,0,8.444"/>
      </g>
      <g id="Group_386" data-name="Group 386" class="cls-12">
        <g id="Group_385" data-name="Group 385">
          <g id="Group_384" data-name="Group 384" class="cls-13">
            <g id="Group_383" data-name="Group 383" transform="translate(71.396 -9.47)">
              <path id="Path_153" data-name="Path 153" class="cls-4" d="M0,0A8.5,8.5,0,0,1-8.47,8.47h-4.972A8.5,8.5,0,0,1-21.912,0V-6.578c0-.041,0-.081,0-.122V-37.206c-4.059,2.813-7.307.569-7.307.569-10.8-6.035-3.176-17.152-3.176-17.152s-1.5,15,6.5,13.33a7.359,7.359,0,0,0,6.333-3.333c.167,0,1-1,1-1v43.5s.333,4.333,4.333,3.833h7s4.167.834,6.834-4A4.436,4.436,0,0,0,.288-3.438S.087-.563,0,0"/>
            </g>
          </g>
        </g>
      </g>
      <g id="Group_390" data-name="Group 390" class="cls-12">
        <g id="Group_389" data-name="Group 389">
          <g id="Group_388" data-name="Group 388" class="cls-14">
            <g id="Group_387" data-name="Group 387" transform="translate(84.817 -12.048)">
              <path id="Path_154" data-name="Path 154" class="cls-4" d="M0,0V2.578a8.5,8.5,0,0,0,8.47,8.47h4.971a8.494,8.494,0,0,0,8.47-8.47,6.631,6.631,0,0,1-4.732,2.875c-3,.166-12,0-12,0A8.679,8.679,0,0,1,0,0"/>
            </g>
          </g>
        </g>
      </g>
      <g id="Group_391" data-name="Group 391" transform="translate(94.901 -54.048)">
        <path id="Path_155" data-name="Path 155" class="cls-15" d="M0,0C0-15.262-7.395-18.557-16.518-18.557S-33.035-15.262-33.035,0s7.4,27.636,16.517,27.636S0,15.263,0,0"/>
      </g>
      <g id="Group_392" data-name="Group 392" transform="translate(94.901 -54.048)">
        <path id="Path_156" data-name="Path 156" class="cls-11" d="M0,0C0-15.262-7.395-18.557-16.518-18.557S-33.035-15.262-33.035,0s7.4,27.636,16.517,27.636S0,15.263,0,0Z"/>
      </g>
      <g id="Group_393" data-name="Group 393" transform="translate(129.417 -124.049)">
        <path id="Path_157" data-name="Path 157" class="cls-4" d="M0,0A9.251,9.251,0,0,0,7.4-10.7,9.25,9.25,0,0,0-3.171-18.226l-.006-.017A9.253,9.253,0,0,0,.081-30.8a9.25,9.25,0,0,0-12.394-3.515l-.047-.059a9.25,9.25,0,0,0-1.312-12.815,9.247,9.247,0,0,0-12.71.786c-.048-.029-.1-.055-.144-.083a9.249,9.249,0,0,0-5.675-11.4,9.251,9.251,0,0,0-11.578,4.856c-.091-.018-.182-.032-.273-.049a9.252,9.252,0,0,0-9.219-8.522,9.255,9.255,0,0,0-9.2,8.247c-.136.022-.27.05-.406.072a9.256,9.256,0,0,0-11.466-4.6,9.25,9.25,0,0,0-5.874,10.643c-.169.094-.334.192-.5.288a9.249,9.249,0,0,0-12.153-.233,9.249,9.249,0,0,0-1.983,11.839c-.156.179-.313.356-.465.538A9.251,9.251,0,0,0-106.624-30.8a9.253,9.253,0,0,0,2.06,11.7c-.1.253-.195.505-.287.76a9.252,9.252,0,0,0-9.09,7.642,9.252,9.252,0,0,0,5.9,10.281c0,.14-.01.276-.01.417s.009.277.01.416a9.253,9.253,0,0,0-5.9,10.281,9.251,9.251,0,0,0,9.09,7.642c.092.255.191.507.287.761a9.252,9.252,0,0,0-2.06,11.7,9.25,9.25,0,0,0,11.305,4.013c.152.181.309.358.465.537a9.248,9.248,0,0,0,1.983,11.839,9.249,9.249,0,0,0,12.153-.233c.168.1.333.195.5.289a9.251,9.251,0,0,0,5.874,10.643,9.257,9.257,0,0,0,11.466-4.6c.136.023.27.051.406.072a9.255,9.255,0,0,0,9.2,8.247,9.251,9.251,0,0,0,9.219-8.521c.091-.018.182-.031.273-.049A9.252,9.252,0,0,0-32.2,57.891a9.25,9.25,0,0,0,5.675-11.4c.047-.028.1-.054.144-.083a9.248,9.248,0,0,0,12.71.785A9.249,9.249,0,0,0-12.36,34.378l.047-.06A9.25,9.25,0,0,0,.081,30.8a9.252,9.252,0,0,0-3.258-12.56.189.189,0,0,1,.006-.018A9.25,9.25,0,0,0,7.4,10.7,9.25,9.25,0,0,0,0,0"/>
      </g>
      <g id="Group_394" data-name="Group 394" transform="translate(55.213 -171.41)">
        <path id="Path_158" data-name="Path 158" class="cls-16" d="M0,0C.163-.093.324-.189.488-.28A9,9,0,0,1,6.129-10.6a9.205,9.205,0,0,0-6.1.072A9.245,9.245,0,0,0-6.039-2.322,9,9,0,0,1,0,0"/>
      </g>
      <g id="Group_395" data-name="Group 395" transform="translate(81.907 -65.82)">
        <path id="Path_159" data-name="Path 159" class="cls-16" d="M0,0A9,9,0,0,1-8.947-8.021c-.132-.021-.262-.049-.4-.071a8.987,8.987,0,0,1-5.2,4.542A9.249,9.249,0,0,0-5.595,3.377,9.221,9.221,0,0,0,1.665-.156,9.134,9.134,0,0,1,0,0"/>
      </g>
      <g id="Group_396" data-name="Group 396" transform="translate(41.011 -159.6)">
        <path id="Path_160" data-name="Path 160" class="cls-16" d="M0,0C.148-.177.3-.349.452-.522A9,9,0,0,1,2.381-12.038a9.027,9.027,0,0,1,2.093-1.315A9.226,9.226,0,0,0-4.3-11.643,9.244,9.244,0,0,0-6.389,0,9,9,0,0,1,0,0"/>
      </g>
      <g id="Group_397" data-name="Group 397" transform="translate(61.414 -69.434)">
        <path id="Path_161" data-name="Path 161" class="cls-16" d="M0,0A9,9,0,0,1-5.713-10.351c-.164-.091-.325-.188-.488-.281a9,9,0,0,1-11.82.228A9,9,0,0,1-19.95-21.92c-.151-.174-.3-.346-.452-.521a9,9,0,0,1-10.995-3.9,9,9,0,0,1,2-11.383c-.093-.247-.189-.491-.278-.74A9,9,0,0,1-38.514-45.9a9,9,0,0,1,5.741-10c0-.136-.01-.27-.01-.406s.009-.27.01-.4a9,9,0,0,1-5.741-10,9,9,0,0,1,8.842-7.432c.089-.248.185-.493.278-.739a9,9,0,0,1-2-11.383,8.927,8.927,0,0,1,3.516-3.411,9.247,9.247,0,0,0-10.573,4.255,9.253,9.253,0,0,0,2.06,11.7c-.1.253-.194.5-.287.76a9.252,9.252,0,0,0-9.09,7.642,9.252,9.252,0,0,0,5.9,10.281c0,.139-.01.276-.01.417s.009.277.01.416a9.252,9.252,0,0,0-5.9,10.281,9.252,9.252,0,0,0,9.09,7.642c.093.255.191.506.287.76a9.252,9.252,0,0,0-2.06,11.7,9.25,9.25,0,0,0,11.3,4.014c.152.181.31.358.465.536A9.25,9.25,0,0,0-24.7-7.423a9.25,9.25,0,0,0,12.153-.233c.168.1.333.2.5.289A9.25,9.25,0,0,0-6.172,3.275,9.249,9.249,0,0,0,4.106.485,8.943,8.943,0,0,1,0,0"/>
      </g>
      <g id="Group_398" data-name="Group 398" transform="translate(60.197 -159.584)">
        <path id="Path_162" data-name="Path 162" class="cls-17" d="M0,0A44.46,44.46,0,0,0-28.3,32.886c-.539,1.617-8.357,24.8,16.712,31.268,0,0,26.147,8.087,54.45,0,.27,0,23.721-2.156,18.061-30.46-.27,0-4.044-22.912-23.991-32.346C36.929,1.078,18.869-8.087,0,0"/>
      </g>
      <g id="Group_399" data-name="Group 399" transform="translate(60.197 -159.584)">
        <path id="Path_163" data-name="Path 163" class="cls-11" d="M0,0A44.46,44.46,0,0,0-28.3,32.886c-.539,1.617-8.357,24.8,16.712,31.268,0,0,26.147,8.087,54.45,0,.27,0,23.721-2.156,18.061-30.46-.27,0-4.044-22.912-23.991-32.346C36.929,1.078,18.869-8.087,0,0Z"/>
      </g>
      <g id="Group_403" data-name="Group 403" class="cls-18">
        <g id="Group_402" data-name="Group 402">
          <g id="Group_401" data-name="Group 401" class="cls-19">
            <g id="Group_400" data-name="Group 400" transform="translate(121.117 -125.89)">
              <path id="Path_164" data-name="Path 164" class="cls-20" d="M0,0C5.66,28.3-17.791,30.46-18.061,30.46c-28.3,8.087-54.45,0-54.45,0C-97.58,23.99-89.762.809-89.223-.809a44.458,44.458,0,0,1,28.3-32.885S-78.621-15.7-76.371,2.8c0,0-2,25.5,29.25,23.5h10S-6.129,33.706,0,0"/>
            </g>
          </g>
        </g>
      </g>
      <g id="Group_404" data-name="Group 404" transform="translate(93.072 -112.929)">
        <path id="Path_165" data-name="Path 165" class="cls-21" d="M0,0A17.076,17.076,0,0,1-17.076,17.076,17.076,17.076,0,0,1-34.153,0,17.077,17.077,0,0,1-17.076-17.076,17.076,17.076,0,0,1,0,0"/>
      </g>
      <g id="Group_405" data-name="Group 405" transform="translate(54.813 -185.046)">
        <path id="Path_166" data-name="Path 166" class="cls-22" d="M0,0Q2.6-9.834,5.222-19.514,8.5-20.1,11.8-20.443q-.245,1.478-.49,2.956-1.919.21-3.829.5-.37,1.644-.74,3.29,1.853-.3,3.712-.52-.293,1.707-.582,3.418-1.961.246-3.909.578-.5,2.25-1.006,4.508,2.4-.436,4.809-.743L9-1.686A91.136,91.136,0,0,0,0,0"/>
      </g>
      <g id="Group_406" data-name="Group 406" transform="translate(73.136 -195.586)">
        <path id="Path_167" data-name="Path 167" class="cls-22" d="M0,0A11.285,11.285,0,0,0-.023-1.49,5.152,5.152,0,0,0-.245-2.644a1.942,1.942,0,0,0-.419-.748.789.789,0,0,0-.624-.244,1.013,1.013,0,0,0-.681.3,2.438,2.438,0,0,0-.512.792,6.524,6.524,0,0,0-.368,1.184,12.019,12.019,0,0,0-.226,1.5A12.429,12.429,0,0,0-3.122,1.7a6.533,6.533,0,0,0,.168,1.323,2.132,2.132,0,0,0,.418.9.837.837,0,0,0,.717.3,1.055,1.055,0,0,0,.738-.375A3.061,3.061,0,0,0-.524,2.9a6.842,6.842,0,0,0,.36-1.348A12.546,12.546,0,0,0,0,0M-.439,8.091q.048-1.06.1-2.12l-.05,0a5.4,5.4,0,0,1-1.023,1.9A2.661,2.661,0,0,1-3.368,8.8a2.306,2.306,0,0,1-1.818-.637A4.473,4.473,0,0,1-6.318,6.234a10.372,10.372,0,0,1-.438-2.78,18.056,18.056,0,0,1,.182-3.2,17.322,17.322,0,0,1,.645-2.878A9.251,9.251,0,0,1-4.94-4.784a4.969,4.969,0,0,1,1.3-1.4A2.977,2.977,0,0,1-2.062-6.74,2,2,0,0,1-.7-6.358,1.884,1.884,0,0,1,.024-5.264l.063,0q.142-3.008.284-6.015,1.477-.04,2.955-.033.062,9.672.124,19.346Q1.5,8.02-.439,8.091"/>
      </g>
      <g id="Group_407" data-name="Group 407" transform="translate(85.249 -195.162)">
        <path id="Path_168" data-name="Path 168" class="cls-22" d="M0,0A12.805,12.805,0,0,0-.294-1.521a6.578,6.578,0,0,0-.433-1.2,2.94,2.94,0,0,0-.557-.814,1.068,1.068,0,0,0-.672-.327.743.743,0,0,0-.631.222,1.657,1.657,0,0,0-.372.737,5.329,5.329,0,0,0-.156,1.15A11.3,11.3,0,0,0-3.068-.261,12.885,12.885,0,0,0-2.834,1.3a7.883,7.883,0,0,0,.411,1.365,3.209,3.209,0,0,0,.587.971,1.183,1.183,0,0,0,.776.406.744.744,0,0,0,.676-.276A2.089,2.089,0,0,0,0,2.882,5.9,5.9,0,0,0,.119,1.559,12.692,12.692,0,0,0,0,0M1.032,8.188Q.888,7.113.743,6.039L.694,6.033A3.766,3.766,0,0,1,.013,7.819a1.878,1.878,0,0,1-1.8.649,3.228,3.228,0,0,1-1.96-.921A6.985,6.985,0,0,1-5.256,5.43a12.9,12.9,0,0,1-.956-2.864,18.234,18.234,0,0,1-.4-3.191,14.828,14.828,0,0,1,.133-2.808,6.781,6.781,0,0,1,.613-2.05A3.219,3.219,0,0,1-4.8-6.734a2.343,2.343,0,0,1,1.5-.371,2.579,2.579,0,0,1,1.442.551,2.858,2.858,0,0,1,.926,1.2l.063.006q-.405-3.042-.811-6.079,1.473.123,2.944.294Q3.081-1.247,4.895,8.711q-1.928-.3-3.863-.523"/>
      </g>
      <g id="Group_408" data-name="Group 408" transform="translate(93.226 -185.911)">
        <path id="Path_169" data-name="Path 169" class="cls-22" d="M0,0Q-1.658-7.595-3.324-15.126q1.623.251,3.238.561Q1.965-6.9,4,.865,2.008.387,0,0M-.8-17.718A1.594,1.594,0,0,1-.9-16.4a.98.98,0,0,1-1.09.373,2.436,2.436,0,0,1-1.381-.789,3.074,3.074,0,0,1-.782-1.45,1.926,1.926,0,0,1-.035-.712,1.262,1.262,0,0,1,.2-.535.884.884,0,0,1,.421-.32,1.212,1.212,0,0,1,.627-.045,2,2,0,0,1,.7.256,2.818,2.818,0,0,1,.617.488,3.626,3.626,0,0,1,.492.653,3.031,3.031,0,0,1,.326.766"/>
      </g>
      <g id="Group_409" data-name="Group 409" transform="translate(53.473 -186.163)">
        <path id="Path_170" data-name="Path 170" class="cls-23" d="M0,0Q2.6-9.82,5.226-19.489q3.277-.573,6.582-.908-.246,1.477-.491,2.955-1.919.205-3.83.491-.371,1.643-.74,3.286,1.852-.291,3.712-.508-.289,1.707-.582,3.417-1.959.24-3.909.565-.5,2.248-1.008,4.5,2.4-.426,4.812-.725Q9.388-4.031,9-1.647,4.474-1.047,0,0"/>
      </g>
      <g id="Group_410" data-name="Group 410" transform="translate(53.473 -186.163)">
        <path id="Path_171" data-name="Path 171" class="cls-24" d="M0,0Q2.6-9.82,5.226-19.489q3.277-.573,6.582-.908-.246,1.477-.491,2.955-1.919.205-3.83.491-.371,1.643-.74,3.286,1.852-.291,3.712-.508-.289,1.707-.582,3.417-1.959.24-3.909.565-.5,2.248-1.008,4.5,2.4-.426,4.812-.725Q9.388-4.031,9-1.647,4.474-1.047,0,0Z"/>
      </g>
      <g id="Group_411" data-name="Group 411" transform="translate(71.803 -196.646)">
        <path id="Path_172" data-name="Path 172" class="cls-23" d="M0,0A11.46,11.46,0,0,0-.023-1.49,5.1,5.1,0,0,0-.245-2.644a1.942,1.942,0,0,0-.419-.748.792.792,0,0,0-.623-.245,1.021,1.021,0,0,0-.683.3,2.469,2.469,0,0,0-.511.792,6.566,6.566,0,0,0-.368,1.183,11.991,11.991,0,0,0-.226,1.5A12.424,12.424,0,0,0-3.122,1.7a6.554,6.554,0,0,0,.168,1.325,2.15,2.15,0,0,0,.418.9.84.84,0,0,0,.717.3,1.055,1.055,0,0,0,.738-.375A3.018,3.018,0,0,0-.524,2.9,6.88,6.88,0,0,0-.163,1.552,12.548,12.548,0,0,0,0,0M-.439,8.091q.048-1.06.1-2.12l-.05,0a5.4,5.4,0,0,1-1.023,1.9A2.656,2.656,0,0,1-3.368,8.8a2.305,2.305,0,0,1-1.818-.641A4.468,4.468,0,0,1-6.319,6.225a10.468,10.468,0,0,1-.438-2.782,18.049,18.049,0,0,1,.183-3.2A17.274,17.274,0,0,1-5.929-2.63a9.242,9.242,0,0,1,.988-2.161,4.973,4.973,0,0,1,1.3-1.4,2.97,2.97,0,0,1,1.583-.555A2,2,0,0,1-.7-6.358,1.878,1.878,0,0,1,.024-5.263l.064,0Q.229-8.273.372-11.28q1.476-.041,2.954-.033.063,9.673.124,19.346Q1.5,8.021-.439,8.091"/>
      </g>
      <g id="Group_412" data-name="Group 412" transform="translate(71.803 -196.646)">
        <path id="Path_173" data-name="Path 173" class="cls-24" d="M0,0A11.46,11.46,0,0,0-.023-1.49,5.1,5.1,0,0,0-.245-2.644a1.942,1.942,0,0,0-.419-.748.792.792,0,0,0-.623-.245,1.021,1.021,0,0,0-.683.3,2.469,2.469,0,0,0-.511.792,6.566,6.566,0,0,0-.368,1.183,11.991,11.991,0,0,0-.226,1.5A12.424,12.424,0,0,0-3.122,1.7a6.554,6.554,0,0,0,.168,1.325,2.15,2.15,0,0,0,.418.9.84.84,0,0,0,.717.3,1.055,1.055,0,0,0,.738-.375A3.018,3.018,0,0,0-.524,2.9,6.88,6.88,0,0,0-.163,1.552,12.548,12.548,0,0,0,0,0ZM-.439,8.091q.048-1.06.1-2.12l-.05,0a5.4,5.4,0,0,1-1.023,1.9A2.656,2.656,0,0,1-3.368,8.8a2.305,2.305,0,0,1-1.818-.641A4.468,4.468,0,0,1-6.319,6.225a10.468,10.468,0,0,1-.438-2.782,18.049,18.049,0,0,1,.183-3.2A17.274,17.274,0,0,1-5.929-2.63a9.242,9.242,0,0,1,.988-2.161,4.973,4.973,0,0,1,1.3-1.4,2.97,2.97,0,0,1,1.583-.555A2,2,0,0,1-.7-6.358,1.878,1.878,0,0,1,.024-5.263l.064,0Q.229-8.273.372-11.28q1.476-.041,2.954-.033.063,9.673.124,19.346Q1.5,8.021-.439,8.091Z"/>
      </g>
      <g id="Group_413" data-name="Group 413" transform="translate(83.916 -196.232)">
        <path id="Path_174" data-name="Path 174" class="cls-23" d="M0,0A12.826,12.826,0,0,0-.294-1.52a6.719,6.719,0,0,0-.433-1.2,2.934,2.934,0,0,0-.557-.813,1.07,1.07,0,0,0-.672-.325.746.746,0,0,0-.632.223,1.647,1.647,0,0,0-.371.737,5.324,5.324,0,0,0-.157,1.15A11.293,11.293,0,0,0-3.069-.255a13.083,13.083,0,0,0,.235,1.563,7.9,7.9,0,0,0,.411,1.364,3.21,3.21,0,0,0,.586.97,1.178,1.178,0,0,0,.777.4.741.741,0,0,0,.675-.277A2.076,2.076,0,0,0,0,2.882,5.9,5.9,0,0,0,.119,1.559,12.892,12.892,0,0,0,0,0M1.032,8.185Q.888,7.111.743,6.037L.694,6.032A3.773,3.773,0,0,1,.013,7.819a1.883,1.883,0,0,1-1.8.654,3.23,3.23,0,0,1-1.96-.918A6.982,6.982,0,0,1-5.257,5.439a12.817,12.817,0,0,1-.956-2.862,18.354,18.354,0,0,1-.4-3.191,14.991,14.991,0,0,1,.133-2.808,6.794,6.794,0,0,1,.613-2.052A3.23,3.23,0,0,1-4.8-6.726,2.359,2.359,0,0,1-3.3-7.1a2.575,2.575,0,0,1,1.442.55,2.852,2.852,0,0,1,.927,1.2l.063.006q-.405-3.041-.812-6.077,1.474.12,2.945.287Q3.083-1.254,4.9,8.7q-1.927-.3-3.864-.511"/>
      </g>
      <g id="Group_414" data-name="Group 414" transform="translate(83.916 -196.232)">
        <path id="Path_175" data-name="Path 175" class="cls-24" d="M0,0A12.826,12.826,0,0,0-.294-1.52a6.719,6.719,0,0,0-.433-1.2,2.934,2.934,0,0,0-.557-.813,1.07,1.07,0,0,0-.672-.325.746.746,0,0,0-.632.223,1.647,1.647,0,0,0-.371.737,5.324,5.324,0,0,0-.157,1.15A11.293,11.293,0,0,0-3.069-.255a13.083,13.083,0,0,0,.235,1.563,7.9,7.9,0,0,0,.411,1.364,3.21,3.21,0,0,0,.586.97,1.178,1.178,0,0,0,.777.4.741.741,0,0,0,.675-.277A2.076,2.076,0,0,0,0,2.882,5.9,5.9,0,0,0,.119,1.559,12.892,12.892,0,0,0,0,0ZM1.032,8.185Q.888,7.111.743,6.037L.694,6.032A3.773,3.773,0,0,1,.013,7.819a1.883,1.883,0,0,1-1.8.654,3.23,3.23,0,0,1-1.96-.918A6.982,6.982,0,0,1-5.257,5.439a12.817,12.817,0,0,1-.956-2.862,18.354,18.354,0,0,1-.4-3.191,14.991,14.991,0,0,1,.133-2.808,6.794,6.794,0,0,1,.613-2.052A3.23,3.23,0,0,1-4.8-6.726,2.359,2.359,0,0,1-3.3-7.1a2.575,2.575,0,0,1,1.442.55,2.852,2.852,0,0,1,.927,1.2l.063.006q-.405-3.041-.812-6.077,1.474.12,2.945.287Q3.083-1.254,4.9,8.7,2.969,8.4,1.032,8.185Z"/>
      </g>
      <g id="Group_415" data-name="Group 415" transform="translate(91.896 -187.008)">
        <path id="Path_176" data-name="Path 176" class="cls-23" d="M0,0Q-1.658-7.587-3.325-15.113q1.623.245,3.24.548Q1.965-6.906,4,.846,2.009.378,0,0M-.8-17.714A1.6,1.6,0,0,1-.9-16.4a.985.985,0,0,1-1.09.378,2.425,2.425,0,0,1-1.383-.785,3.046,3.046,0,0,1-.781-1.446,1.889,1.889,0,0,1-.035-.713,1.266,1.266,0,0,1,.2-.535.89.89,0,0,1,.422-.322,1.222,1.222,0,0,1,.627-.047,1.985,1.985,0,0,1,.7.254,2.8,2.8,0,0,1,.616.485,3.663,3.663,0,0,1,.493.651,3.01,3.01,0,0,1,.326.765"/>
      </g>
      <g id="Group_416" data-name="Group 416" transform="translate(91.896 -187.008)">
        <path id="Path_177" data-name="Path 177" class="cls-24" d="M0,0Q-1.658-7.587-3.325-15.113q1.623.245,3.24.548Q1.965-6.906,4,.846,2.009.378,0,0ZM-.8-17.714A1.6,1.6,0,0,1-.9-16.4a.985.985,0,0,1-1.09.378,2.425,2.425,0,0,1-1.383-.785,3.046,3.046,0,0,1-.781-1.446,1.889,1.889,0,0,1-.035-.713,1.266,1.266,0,0,1,.2-.535.89.89,0,0,1,.422-.322,1.222,1.222,0,0,1,.627-.047,1.985,1.985,0,0,1,.7.254,2.8,2.8,0,0,1,.616.485,3.663,3.663,0,0,1,.493.651A3.01,3.01,0,0,1-.8-17.714Z"/>
      </g>
      <g id="Group_417" data-name="Group 417" transform="translate(76.017 -115.433)">
        <path id="Path_178" data-name="Path 178" class="cls-25" d="M0,0V7.245"/>
      </g>
      <g id="Group_418" data-name="Group 418" transform="translate(76.589 -115.433)">
        <path id="Path_179" data-name="Path 179" class="cls-25" d="M0,0V7.245"/>
      </g>
      <g id="Group_419" data-name="Group 419" transform="translate(112.449 -118.595)">
        <path id="Path_180" data-name="Path 180" class="cls-26" d="M0,0C0,1.984-3.039,3.593-6.787,3.593S-13.573,1.984-13.573,0s3.038-3.594,6.786-3.594S0-1.985,0,0"/>
      </g>
      <g id="Group_420" data-name="Group 420" transform="translate(55.116 -118.595)">
        <path id="Path_181" data-name="Path 181" class="cls-26" d="M0,0C0,1.984-3.039,3.593-6.787,3.593S-13.573,1.984-13.573,0s3.038-3.594,6.786-3.594S0-1.985,0,0"/>
      </g>
      <g id="Group_421" data-name="Group 421" transform="translate(94.465 -117.702)">
        <path id="Path_182" data-name="Path 182" class="cls-8" d="M0,0A1.28,1.28,0,0,1-1.28,1.28,1.28,1.28,0,0,1-2.561,0,1.28,1.28,0,0,1-1.28-1.28,1.28,1.28,0,0,1,0,0"/>
      </g>
      <g id="Group_422" data-name="Group 422" transform="translate(88.703 -114.501)">
        <path id="Path_183" data-name="Path 183" class="cls-8" d="M0,0A1.28,1.28,0,0,1-1.28,1.28,1.28,1.28,0,0,1-2.561,0,1.279,1.279,0,0,1-1.28-1.28,1.279,1.279,0,0,1,0,0"/>
      </g>
      <g id="Group_423" data-name="Group 423" transform="translate(95.745 -111.301)">
        <path id="Path_184" data-name="Path 184" class="cls-8" d="M0,0A1.28,1.28,0,0,1-1.28,1.28,1.281,1.281,0,0,1-2.561,0,1.281,1.281,0,0,1-1.28-1.28,1.28,1.28,0,0,1,0,0"/>
      </g>
      <g id="Group_424" data-name="Group 424" transform="translate(56.694 -117.702)">
        <path id="Path_185" data-name="Path 185" class="cls-8" d="M0,0A1.281,1.281,0,0,0,1.281,1.28,1.28,1.28,0,0,0,2.561,0a1.28,1.28,0,0,0-1.28-1.28A1.281,1.281,0,0,0,0,0"/>
      </g>
      <g id="Group_425" data-name="Group 425" transform="translate(62.456 -114.501)">
        <path id="Path_186" data-name="Path 186" class="cls-8" d="M0,0A1.28,1.28,0,0,0,1.28,1.28,1.281,1.281,0,0,0,2.561,0,1.28,1.28,0,0,0,1.28-1.28,1.279,1.279,0,0,0,0,0"/>
      </g>
      <g id="Group_426" data-name="Group 426" transform="translate(55.414 -111.301)">
        <path id="Path_187" data-name="Path 187" class="cls-8" d="M0,0A1.28,1.28,0,0,0,1.28,1.28,1.28,1.28,0,0,0,2.561,0,1.28,1.28,0,0,0,1.28-1.28,1.28,1.28,0,0,0,0,0"/>
      </g>
      <g id="Group_427" data-name="Group 427" transform="translate(71.245 -119.256)">
        <path id="Path_188" data-name="Path 188" class="cls-4" d="M0,0S-1.716-3.432,1.287-4.29H8.15s4.29.858,2.145,3.861C9.866-.429,5.147,10.3,0,0"/>
      </g>
      <g id="Group_428" data-name="Group 428" transform="translate(72.245 -121.256)">
        <path id="Path_189" data-name="Path 189" class="cls-27" d="M0,0A5.228,5.228,0,0,1-.483-1.946C-2.372-.76-1,2-1,2c5.148,10.3,9.867-.429,10.3-.429a2.783,2.783,0,0,0,.6-1.486C8.58,2.092,4.451,8.9,0,0"/>
      </g>
      <g id="Group_429" data-name="Group 429" transform="translate(129.417 -124.049)">
        <path id="Path_190" data-name="Path 190" class="cls-5" d="M0,0A9.251,9.251,0,0,0,7.4-10.7,9.25,9.25,0,0,0-3.171-18.226l-.006-.017A9.253,9.253,0,0,0,.081-30.8a9.25,9.25,0,0,0-12.394-3.515l-.047-.059a9.25,9.25,0,0,0-1.312-12.815,9.247,9.247,0,0,0-12.71.786c-.048-.029-.1-.055-.144-.083a9.249,9.249,0,0,0-5.675-11.4,9.251,9.251,0,0,0-11.578,4.856c-.091-.018-.182-.032-.273-.049a9.252,9.252,0,0,0-9.219-8.522,9.255,9.255,0,0,0-9.2,8.247c-.136.022-.27.05-.406.072a9.256,9.256,0,0,0-11.466-4.6,9.25,9.25,0,0,0-5.874,10.643c-.169.094-.334.192-.5.288a9.249,9.249,0,0,0-12.153-.233,9.249,9.249,0,0,0-1.983,11.839c-.156.179-.313.356-.465.538A9.251,9.251,0,0,0-106.624-30.8a9.253,9.253,0,0,0,2.06,11.7c-.1.253-.195.505-.287.76a9.252,9.252,0,0,0-9.09,7.642,9.252,9.252,0,0,0,5.9,10.281c0,.14-.01.276-.01.417s.009.277.01.416a9.253,9.253,0,0,0-5.9,10.281,9.251,9.251,0,0,0,9.09,7.642c.092.255.191.507.287.761a9.252,9.252,0,0,0-2.06,11.7,9.25,9.25,0,0,0,11.305,4.013c.152.181.309.358.465.537a9.248,9.248,0,0,0,1.983,11.839,9.249,9.249,0,0,0,12.153-.233c.168.1.333.195.5.289a9.251,9.251,0,0,0,5.874,10.643,9.257,9.257,0,0,0,11.466-4.6c.136.023.27.051.406.072a9.255,9.255,0,0,0,9.2,8.247,9.251,9.251,0,0,0,9.219-8.521c.091-.018.182-.031.273-.049A9.252,9.252,0,0,0-32.2,57.891a9.25,9.25,0,0,0,5.675-11.4c.047-.028.1-.054.144-.083a9.248,9.248,0,0,0,12.71.785A9.249,9.249,0,0,0-12.36,34.378l.047-.06A9.25,9.25,0,0,0,.081,30.8a9.252,9.252,0,0,0-3.258-12.56.189.189,0,0,1,.006-.018A9.25,9.25,0,0,0,7.4,10.7,9.25,9.25,0,0,0,0,0Z"/>
      </g>
      <g id="Group_430" data-name="Group 430" transform="translate(54.904 -133.762)">
        <path id="Path_191" data-name="Path 191" class="cls-28" d="M0,0H12.5"/>
      </g>
      <g id="Group_431" data-name="Group 431" transform="translate(84.904 -133.762)">
        <path id="Path_192" data-name="Path 192" class="cls-28" d="M0,0H12.5"/>
      </g>
      <g id="Group_432" data-name="Group 432" transform="translate(98.404 -162.262)">
        <path id="Path_193" data-name="Path 193" class="cls-5" d="M0,0V19.5"/>
      </g>
      <g id="Group_433" data-name="Group 433" transform="translate(102.904 -162.262)">
        <path id="Path_194" data-name="Path 194" class="cls-5" d="M0,0V19.5"/>
      </g>
      <g id="Group_434" data-name="Group 434" transform="translate(106.904 -162.262)">
        <path id="Path_195" data-name="Path 195" class="cls-5" d="M0,0V19.5"/>
      </g>
      <g id="Group_435" data-name="Group 435" transform="translate(70.071 -105.929)">
        <path id="Path_196" data-name="Path 196" class="cls-29" d="M0,0H13.333"/>
      </g>
    </g>
  </g>
</svg>
