<svg xmlns="http://www.w3.org/2000/svg" xmlns:xlink="http://www.w3.org/1999/xlink" viewBox="0 0 131.587 212.559">
  <defs>
    <style>
      .cls-1, .cls-14, .cls-24, .cls-25, .cls-3, .cls-5 {
        fill: none;
      }

      .cls-2 {
        clip-path: url(#clip-path);
      }

      .cls-3 {
        stroke: #3a2213;
        stroke-width: 3px;
      }

      .cls-4 {
        fill: #a66122;
      }

      .cls-14, .cls-24, .cls-5, .cls-9 {
        stroke: #221f1f;
      }

      .cls-24, .cls-25, .cls-5 {
        stroke-linecap: round;
        stroke-linejoin: round;
      }

      .cls-14, .cls-5, .cls-9 {
        stroke-width: 2px;
      }

      .cls-6 {
        opacity: 0.31;
      }

      .cls-7 {
        clip-path: url(#clip-path-2);
      }

      .cls-8 {
        fill: #3a2213;
      }

      .cls-15, .cls-9 {
        fill: #efaa43;
      }

      .cls-10 {
        opacity: 0.45;
      }

      .cls-11 {
        clip-path: url(#clip-path-3);
      }

      .cls-12 {
        clip-path: url(#clip-path-4);
      }

      .cls-13 {
        fill: #f8d162;
      }

      .cls-16 {
        fill: #854f1b;
      }

      .cls-17 {
        fill: #fdd6c0;
      }

      .cls-18 {
        opacity: 0.42;
      }

      .cls-19 {
        clip-path: url(#clip-path-5);
      }

      .cls-20 {
        fill: #f8a978;
      }

      .cls-21 {
        fill: #ffece0;
      }

      .cls-22 {
        fill: #d09912;
      }

      .cls-23 {
        fill: #ffca06;
      }

      .cls-25 {
        stroke: #000;
        stroke-width: 1.5px;
      }

      .cls-26 {
        fill: #f79d7e;
      }

      .cls-27 {
        fill: #fff;
      }

      .cls-28 {
        fill: #8e541e;
      }
    </style>
    <clipPath id="clip-path">
      <path id="Path_141" data-name="Path 141" class="cls-1" d="M0-212.559H131.587V0H0Z"/>
    </clipPath>
    <clipPath id="clip-path-2">
      <rect id="Rectangle_342" data-name="Rectangle 342" class="cls-1" width="17.925" height="17.925" transform="translate(1 -55.167)"/>
    </clipPath>
    <clipPath id="clip-path-3">
      <rect id="Rectangle_343" data-name="Rectangle 343" class="cls-1" width="35.3" height="62.259" transform="translate(21.05 -63.259)"/>
    </clipPath>
    <clipPath id="clip-path-4">
      <rect id="Rectangle_344" data-name="Rectangle 344" class="cls-1" width="21.911" height="11.048" transform="translate(69.484 -12.048)"/>
    </clipPath>
    <clipPath id="clip-path-5">
      <rect id="Rectangle_345" data-name="Rectangle 345" class="cls-1" width="91.016" height="72.749" transform="translate(18.514 -166.333)"/>
    </clipPath>
  </defs>
  <g id="Group_447" data-name="Group 447" transform="translate(0 212.559)">
    <g id="Group_367" data-name="Group 367" class="cls-2">
      <g id="Group_300" data-name="Group 300" transform="translate(61.176 -31.2)">
        <path id="Path_86" data-name="Path 86" class="cls-3" d="M0,0S-30.088,22.406-48.012-7.682"/>
      </g>
      <g id="Group_301" data-name="Group 301" transform="translate(18.925 -46.204)">
        <path id="Path_87" data-name="Path 87" class="cls-4" d="M0,0A8.963,8.963,0,0,1-8.962,8.962,8.963,8.963,0,0,1-17.925,0,8.963,8.963,0,0,1-8.962-8.963,8.963,8.963,0,0,1,0,0"/>
      </g>
      <g id="Group_302" data-name="Group 302" transform="translate(18.925 -46.204)">
        <path id="Path_88" data-name="Path 88" class="cls-5" d="M0,0A8.963,8.963,0,0,1-8.962,8.962,8.963,8.963,0,0,1-17.925,0,8.963,8.963,0,0,1-8.962-8.963,8.963,8.963,0,0,1,0,0Z"/>
      </g>
      <g id="Group_306" data-name="Group 306" class="cls-6">
        <g id="Group_305" data-name="Group 305">
          <g id="Group_304" data-name="Group 304" class="cls-7">
            <g id="Group_303" data-name="Group 303" transform="translate(11.712 -40.742)">
              <path id="Path_89" data-name="Path 89" class="cls-8" d="M0,0A7.212,7.212,0,0,1-7.212-7.212a7.21,7.21,0,0,1,6.4-7.163,9.031,9.031,0,0,0-.935-.05,8.962,8.962,0,0,0-8.962,8.963A8.962,8.962,0,0,0-1.75,3.5,8.962,8.962,0,0,0,7.212-5.462,9.3,9.3,0,0,0,7.164-6.4,7.212,7.212,0,0,1,0,0"/>
            </g>
          </g>
        </g>
      </g>
      <g id="Group_307" data-name="Group 307" transform="translate(93.156 -74.694)">
        <path id="Path_90" data-name="Path 90" class="cls-9" d="M0,0-3.048-7.523a4.025,4.025,0,0,0-2.521-.889H-54.96A4.021,4.021,0,0,0-57-7.852L-59.647,0l-9.847,11.436s-7.624,11.117,3.177,17.152c0,0,3.248,2.244,7.305-.569v30.5c0,.041.005.081.007.122v6.579a8.494,8.494,0,0,0,8.469,8.469h4.973a8.494,8.494,0,0,0,8.469-8.469l.318-2.649V57.417a4.064,4.064,0,0,1,4.052-4.053h4.919a4.065,4.065,0,0,1,4.053,4.053v5.159l.323,2.649a8.495,8.495,0,0,0,8.47,8.469h4.972a8.495,8.495,0,0,0,8.47-8.469V22.766l13.023-6.333s16-9,1.667-18.667c-.333,0-5.917.072-8.667,1.334L0,0"/>
      </g>
      <g id="Group_311" data-name="Group 311" class="cls-10">
        <g id="Group_310" data-name="Group 310">
          <g id="Group_309" data-name="Group 309" class="cls-11">
            <g id="Group_308" data-name="Group 308" transform="translate(56.063 -9.47)">
              <path id="Path_91" data-name="Path 91" class="cls-4" d="M0,0A8.5,8.5,0,0,1-8.47,8.47h-4.972A8.5,8.5,0,0,1-21.912,0V-6.578c0-.041-.006-.081-.006-.122V-37.206c-4.058,2.813-7.306.569-7.306.569-10.8-6.035-3.176-17.152-3.176-17.152s-1.5,15,6.5,13.33a7.36,7.36,0,0,0,6.334-3.333c.166,0,1-1,1-1v43.5s.333,4.333,4.333,3.833h7s4.167.834,6.833-4A4.444,4.444,0,0,0,.288-3.438S.087-.563,0,0"/>
            </g>
          </g>
        </g>
      </g>
      <g id="Group_315" data-name="Group 315" class="cls-10">
        <g id="Group_314" data-name="Group 314">
          <g id="Group_313" data-name="Group 313" class="cls-12">
            <g id="Group_312" data-name="Group 312" transform="translate(69.484 -12.048)">
              <path id="Path_92" data-name="Path 92" class="cls-4" d="M0,0V2.578a8.495,8.495,0,0,0,8.47,8.47h4.971a8.495,8.495,0,0,0,8.47-8.47,6.634,6.634,0,0,1-4.733,2.875c-3,.166-12,0-12,0A8.676,8.676,0,0,1,0,0"/>
            </g>
          </g>
        </g>
      </g>
      <g id="Group_316" data-name="Group 316" transform="translate(79.568 -54.048)">
        <path id="Path_93" data-name="Path 93" class="cls-13" d="M0,0C0-15.262-7.395-18.557-16.518-18.557S-33.036-15.262-33.036,0s7.4,27.636,16.518,27.636S0,15.263,0,0"/>
      </g>
      <g id="Group_317" data-name="Group 317" transform="translate(79.568 -54.048)">
        <path id="Path_94" data-name="Path 94" class="cls-14" d="M0,0C0-15.262-7.395-18.557-16.518-18.557S-33.036-15.262-33.036,0s7.4,27.636,16.518,27.636S0,15.263,0,0Z"/>
      </g>
      <g id="Group_318" data-name="Group 318" transform="translate(112.635 -159.991)">
        <path id="Path_95" data-name="Path 95" class="cls-15" d="M0,0C.008-.031.011-.063.019-.094a9.1,9.1,0,1,1,6.8,11.05S-12.756,16.565,0,0"/>
      </g>
      <g id="Group_319" data-name="Group 319" transform="translate(112.635 -159.991)">
        <path id="Path_96" data-name="Path 96" class="cls-14" d="M0,0C.008-.031.011-.063.019-.094a9.1,9.1,0,1,1,6.8,11.05S-12.756,16.565,0,0Z"/>
      </g>
      <g id="Group_320" data-name="Group 320" transform="translate(37.706 -178.558)">
        <path id="Path_97" data-name="Path 97" class="cls-15" d="M0,0C.008-.031.02-.061.028-.092A9.1,9.1,0,0,0-6.616-11.113,9.1,9.1,0,0,0-17.637-4.469a9.1,9.1,0,0,0,6.5,10.976S4.365,21.5,0,0"/>
      </g>
      <g id="Group_321" data-name="Group 321" transform="translate(37.706 -178.558)">
        <path id="Path_98" data-name="Path 98" class="cls-14" d="M0,0C.008-.031.02-.061.028-.092A9.1,9.1,0,0,0-6.616-11.113,9.1,9.1,0,0,0-17.637-4.469a9.1,9.1,0,0,0,6.5,10.976S4.365,21.5,0,0Z"/>
      </g>
      <g id="Group_322" data-name="Group 322" transform="translate(34.449 -183.722)">
        <path id="Path_99" data-name="Path 99" class="cls-4" d="M0,0A5.971,5.971,0,0,0-8.2-2.031a5.971,5.971,0,0,0-2.031,8.2"/>
      </g>
      <g id="Group_323" data-name="Group 323" transform="translate(117.144 -115.193)">
        <path id="Path_100" data-name="Path 100" class="cls-4" d="M0,0A9.254,9.254,0,0,0,9.755-8.6a9.251,9.251,0,0,0-8.449-9.848c0-.007,0-.013,0-.02A9.252,9.252,0,0,0,7.488-29.879,9.249,9.249,0,0,0-3.7-36.272l-.032-.07A9.249,9.249,0,0,0-1.919-49.1a9.25,9.25,0,0,0-12.527-2.295c-.039-.038-.08-.075-.119-.114a9.248,9.248,0,0,0-2.767-12.431,9.252,9.252,0,0,0-12.406,1.928c-.083-.039-.169-.074-.253-.113a9.25,9.25,0,0,0-6.9-10.489A9.254,9.254,0,0,0-47.8-66.817c-.138-.012-.275-.016-.412-.027a9.257,9.257,0,0,0-10.022-7.228A9.25,9.25,0,0,0-66.5-65.154c-.187.05-.371.107-.557.159a9.251,9.251,0,0,0-11.74-3.15A9.25,9.25,0,0,0-83.566-57.13c-.194.137-.389.271-.581.41a9.249,9.249,0,0,0-11.938,1.177A9.251,9.251,0,0,0-96.9-43.688c-.154.223-.311.444-.462.669a9.252,9.252,0,0,0-10.661,5.231,9.252,9.252,0,0,0,3.256,11.4c-.034.136-.077.267-.11.4s-.058.271-.09.407a9.251,9.251,0,0,0-8.2,8.559,9.252,9.252,0,0,0,6.985,9.6c.029.27.064.538.1.807A9.252,9.252,0,0,0-110.9,4.254a9.249,9.249,0,0,0,10.007,6.615c.1.212.215.422.322.633a9.25,9.25,0,0,0-.922,11.969,9.251,9.251,0,0,0,11.852,2.7c.14.133.277.27.418.4a9.253,9.253,0,0,0,3.142,11.744A9.257,9.257,0,0,0-73.847,36.6c.127.053.25.114.377.168a9.254,9.254,0,0,0,6.946,10.217,9.252,9.252,0,0,0,11-6.054l.276.018a9.252,9.252,0,0,0,10.071,7.5,9.247,9.247,0,0,0,8.25-9.7c.053-.017.107-.03.16-.046a9.248,9.248,0,0,0,12.148,3.82A9.25,9.25,0,0,0-20.266,30.4c.02-.015.04-.031.06-.045A9.251,9.251,0,0,0-7.33,29.919a9.252,9.252,0,0,0-.141-12.976l.01-.015a9.252,9.252,0,0,0,12.07-4.765A9.253,9.253,0,0,0,0,0"/>
      </g>
      <g id="Group_324" data-name="Group 324" transform="translate(56.509 -179.011)">
        <path id="Path_101" data-name="Path 101" class="cls-16" d="M0,0C.181-.052.36-.106.542-.155A8.995,8.995,0,0,1,8.5-8.817a9.2,9.2,0,0,0-5.938-1.4A9.24,9.24,0,0,0-5.3-3.707,9,9,0,0,1,0,0"/>
      </g>
      <g id="Group_325" data-name="Group 325" transform="translate(57.024 -70.101)">
        <path id="Path_102" data-name="Path 102" class="cls-16" d="M0,0A9,9,0,0,1-6.755-9.938c-.124-.051-.244-.11-.367-.163a8.986,8.986,0,0,1-6.139,3.158A9.25,9.25,0,0,0-6.243,1.933,9.221,9.221,0,0,0,1.653.249,8.956,8.956,0,0,1,0,0"/>
      </g>
      <g id="Group_326" data-name="Group 326" transform="translate(39.884 -170.964)">
        <path id="Path_103" data-name="Path 103" class="cls-16" d="M0,0C.187-.135.376-.265.564-.4A9,9,0,0,1,5.207-11.111a8.96,8.96,0,0,1,2.347-.772,9.223,9.223,0,0,0-8.926-.451A9.245,9.245,0,0,0-6.2-1.537,9,9,0,0,1,0,0"/>
      </g>
      <g id="Group_327" data-name="Group 327" transform="translate(38.001 -78.537)">
        <path id="Path_104" data-name="Path 104" class="cls-16" d="M0,0A9,9,0,0,1-3.056-11.421c-.137-.128-.27-.261-.406-.39A9,9,0,0,1-14.99-14.433a9,9,0,0,1,.9-11.641c-.1-.2-.211-.409-.313-.615a9,9,0,0,1-9.733-6.434,9,9,0,0,1,4.682-10.566c-.031-.262-.065-.523-.092-.786a9,9,0,0,1-6.8-9.34,9,9,0,0,1,7.977-8.325c.032-.131.055-.264.088-.4s.073-.259.107-.391a9,9,0,0,1-3.167-11.087A9,9,0,0,1-10.97-79.1c.147-.219.3-.433.449-.65a9,9,0,0,1,.793-11.531,8.926,8.926,0,0,1,4.234-2.465A9.248,9.248,0,0,0-16.781-92.16,9.253,9.253,0,0,0-17.6-80.305c-.154.224-.31.445-.461.67A9.251,9.251,0,0,0-28.719-74.4a9.251,9.251,0,0,0,3.257,11.4c-.035.136-.077.267-.111.4s-.057.272-.09.408a9.251,9.251,0,0,0-8.2,8.559,9.253,9.253,0,0,0,6.986,9.6c.028.269.064.538.095.806A9.253,9.253,0,0,0-31.6-32.362a9.251,9.251,0,0,0,10.007,6.615c.1.212.215.422.322.633a9.249,9.249,0,0,0-.922,11.968,9.25,9.25,0,0,0,11.853,2.7c.14.133.276.269.418.4A9.25,9.25,0,0,0-6.779,1.7,9.249,9.249,0,0,0,3.869,1.459,8.947,8.947,0,0,1,0,0"/>
      </g>
      <g id="Group_328" data-name="Group 328" transform="translate(58.503 -166.333)">
        <path id="Path_105" data-name="Path 105" class="cls-17" d="M0,0A44.457,44.457,0,0,0-35.382,25.112c-.912,1.441-14.076,22.062,8.7,34.37,0,0,23.434,14.139,52.852,13.1.262.065,23.543,3.612,24.856-25.222-.261-.065,1.586-23.211-15.506-37.168C35.585,9.929,20.26-3.312,0,0"/>
      </g>
      <g id="Group_329" data-name="Group 329" transform="translate(58.503 -166.333)">
        <path id="Path_106" data-name="Path 106" class="cls-14" d="M0,0A44.457,44.457,0,0,0-35.382,25.112c-.912,1.441-14.076,22.062,8.7,34.37,0,0,23.434,14.139,52.852,13.1.262.065,23.543,3.612,24.856-25.222-.261-.065,1.586-23.211-15.506-37.168C35.585,9.929,20.26-3.312,0,0Z"/>
      </g>
      <g id="Group_333" data-name="Group 333" class="cls-18">
        <g id="Group_332" data-name="Group 332">
          <g id="Group_331" data-name="Group 331" class="cls-19">
            <g id="Group_330" data-name="Group 330" transform="translate(109.53 -118.976)">
              <path id="Path_107" data-name="Path 107" class="cls-20" d="M0,0C-1.313,28.834-24.594,25.286-24.856,25.222c-29.417,1.042-52.852-13.1-52.852-13.1-22.777-12.309-9.613-32.93-8.7-34.37A44.457,44.457,0,0,1-51.027-47.357s-21.509,13.2-23.774,31.7c0,0-8.074,24.27,22.739,29.844l9.707,2.406S-14.056,31.242,0,0"/>
            </g>
          </g>
        </g>
      </g>
      <g id="Group_334" data-name="Group 334" transform="translate(79.191 -113.141)">
        <path id="Path_108" data-name="Path 108" class="cls-21" d="M0,0A17.076,17.076,0,0,1-20.682,12.468,17.077,17.077,0,0,1-33.15-8.214,17.077,17.077,0,0,1-12.468-20.682,17.075,17.075,0,0,1,0,0"/>
      </g>
      <g id="Group_335" data-name="Group 335" transform="translate(59.401 -192.343)">
        <path id="Path_109" data-name="Path 109" class="cls-22" d="M0,0Q4.707-9.436,9.492-18.349q3.2.387,6.414,1.007-.59,1.383-1.18,2.772-1.867-.336-3.729-.593-.744,1.533-1.486,3.078,1.8.218,3.614.511-.687,1.613-1.375,3.236-1.905-.279-3.8-.475Q6.935-6.686,5.929-4.536q2.329.186,4.675.5Q9.668-1.758,8.734.542A86.907,86.907,0,0,0,0,0"/>
      </g>
      <g id="Group_336" data-name="Group 336" transform="translate(79.142 -198.202)">
        <path id="Path_110" data-name="Path 110" class="cls-22" d="M0,0A11.457,11.457,0,0,0,.339-1.455,5.242,5.242,0,0,0,.4-2.635a2,2,0,0,0-.221-.84.81.81,0,0,0-.54-.406.977.977,0,0,0-.729.113,2.368,2.368,0,0,0-.682.636,6.479,6.479,0,0,0-.638,1.06,12.038,12.038,0,0,0-.58,1.416,12.548,12.548,0,0,0-.42,1.51A6.8,6.8,0,0,0-3.566,2.2a2.221,2.221,0,0,0,.182.989.834.834,0,0,0,.613.474,1.034,1.034,0,0,0,.8-.183,3.04,3.04,0,0,0,.764-.786A6.9,6.9,0,0,0-.533,1.469,12.7,12.7,0,0,0,0,0M-2.382,7.789q.3-1.027.607-2.051l-.049-.01A5.512,5.512,0,0,1-3.267,7.342a2.6,2.6,0,0,1-2.093.447A2.217,2.217,0,0,1-6.935,6.721a4.65,4.65,0,0,1-.607-2.2,11.176,11.176,0,0,1,.256-2.873A18.977,18.977,0,0,1-6.34-1.47,17.336,17.336,0,0,1-5.034-4.143,8.97,8.97,0,0,1-3.572-6,4.667,4.667,0,0,1-2-7.015a2.831,2.831,0,0,1,1.649-.1,2.067,2.067,0,0,1,1.216.75A1.974,1.974,0,0,1,1.3-5.105l.062.015q.866-2.875,1.73-5.736,1.434.39,2.866.826Q3.677-.729,1.393,8.661q-1.887-.477-3.775-.872"/>
      </g>
      <g id="Group_337" data-name="Group 337" transform="translate(90.891 -194.633)">
        <path id="Path_111" data-name="Path 111" class="cls-22" d="M0,0A11.623,11.623,0,0,0,.073-1.508,6.166,6.166,0,0,0-.066-2.756a2.878,2.878,0,0,0-.355-.917,1.151,1.151,0,0,0-.585-.493.773.773,0,0,0-.677.039,1.543,1.543,0,0,0-.545.6A5.027,5.027,0,0,0-2.66-2.483a10.719,10.719,0,0,0-.314,1.429A12.553,12.553,0,0,0-3.12.49a7.642,7.642,0,0,0,.076,1.4A3.112,3.112,0,0,0-2.7,2.96a1.223,1.223,0,0,0,.672.582.781.781,0,0,0,.736-.09,1.99,1.99,0,0,0,.6-.738A5.493,5.493,0,0,0-.258,1.5,11.523,11.523,0,0,0,0,0M-.945,7.974q.114-1.048.23-2.1l-.048-.018A3.606,3.606,0,0,1-1.872,7.378a1.992,1.992,0,0,1-1.945.182A3.276,3.276,0,0,1-5.531,6.211,6.764,6.764,0,0,1-6.5,3.817,12.506,12.506,0,0,1-6.745.834a17.831,17.831,0,0,1,.384-3.162,14.173,14.173,0,0,1,.81-2.651A6.363,6.363,0,0,1-4.457-6.771a3.048,3.048,0,0,1,1.342-.895A2.418,2.418,0,0,1-1.553-7.6a2.8,2.8,0,0,1,1.288.925A2.924,2.924,0,0,1,.363-5.286l.061.023q.33-2.97.66-5.937,1.425.549,2.843,1.143Q3.366-.326,2.805,9.411.933,8.652-.945,7.974"/>
      </g>
      <g id="Group_338" data-name="Group 338" transform="translate(96.686 -183.954)">
        <path id="Path_112" data-name="Path 112" class="cls-22" d="M0,0,.258-14.875q1.566.7,3.124,1.454.251,7.615.5,15.234Q1.948.862,0,0M3.41-16.517A1.367,1.367,0,0,1,3-15.343a1.059,1.059,0,0,1-1.185.023,2.7,2.7,0,0,1-1.2-1.131,2.965,2.965,0,0,1-.436-1.568,1.678,1.678,0,0,1,.135-.668,1.111,1.111,0,0,1,.332-.433.868.868,0,0,1,.5-.169,1.375,1.375,0,0,1,.638.147,2.343,2.343,0,0,1,.639.446,3.135,3.135,0,0,1,.5.633,3.687,3.687,0,0,1,.34.747,2.846,2.846,0,0,1,.147.8"/>
      </g>
      <g id="Group_339" data-name="Group 339" transform="translate(58.341 -193.751)">
        <path id="Path_113" data-name="Path 113" class="cls-23" d="M0,0Q4.712-9.409,9.5-18.308q3.2.4,6.416,1.021-.591,1.382-1.181,2.77-1.867-.339-3.73-.6-.742,1.53-1.485,3.073,1.8.222,3.614.52-.688,1.611-1.375,3.233-1.9-.283-3.8-.486Q6.941-6.653,5.933-4.508q2.331.2,4.676.515Q9.673-1.716,8.739.581,4.342.073,0,0"/>
      </g>
      <g id="Group_340" data-name="Group 340" transform="translate(58.341 -193.751)">
        <path id="Path_114" data-name="Path 114" class="cls-24" d="M0,0Q4.712-9.409,9.5-18.308q3.2.4,6.416,1.021-.591,1.382-1.181,2.77-1.867-.339-3.73-.6-.742,1.53-1.485,3.073,1.8.222,3.614.52-.688,1.611-1.375,3.233-1.9-.283-3.8-.486Q6.941-6.653,5.933-4.508q2.331.2,4.676.515Q9.673-1.716,8.739.581,4.342.073,0,0Z"/>
      </g>
      <g id="Group_341" data-name="Group 341" transform="translate(78.088 -199.553)">
        <path id="Path_115" data-name="Path 115" class="cls-23" d="M0,0A11.457,11.457,0,0,0,.339-1.455,5.245,5.245,0,0,0,.4-2.635a2.019,2.019,0,0,0-.221-.84.807.807,0,0,0-.54-.406.977.977,0,0,0-.729.112,2.4,2.4,0,0,0-.682.636,6.467,6.467,0,0,0-.638,1.059,12.038,12.038,0,0,0-.58,1.416A12.534,12.534,0,0,0-3.406.851a6.725,6.725,0,0,0-.16,1.343,2.219,2.219,0,0,0,.182.989.833.833,0,0,0,.613.475,1.033,1.033,0,0,0,.8-.182,3.034,3.034,0,0,0,.764-.785A6.962,6.962,0,0,0-.533,1.469,12.959,12.959,0,0,0,0,0M-2.382,7.788q.3-1.026.607-2.051l-.049-.01A5.506,5.506,0,0,1-3.267,7.34a2.6,2.6,0,0,1-2.093.444A2.22,2.22,0,0,1-6.935,6.713a4.669,4.669,0,0,1-.608-2.2,11.169,11.169,0,0,1,.257-2.872,18.971,18.971,0,0,1,.945-3.123A17.284,17.284,0,0,1-5.034-4.147,8.894,8.894,0,0,1-3.572-6,4.664,4.664,0,0,1-2-7.016a2.831,2.831,0,0,1,1.649-.1,2.069,2.069,0,0,1,1.216.75A1.974,1.974,0,0,1,1.3-5.105l.062.015q.866-2.875,1.73-5.736,1.434.388,2.867.823Q3.677-.73,1.393,8.661q-1.887-.477-3.775-.873"/>
      </g>
      <g id="Group_342" data-name="Group 342" transform="translate(78.088 -199.553)">
        <path id="Path_116" data-name="Path 116" class="cls-24" d="M0,0A11.457,11.457,0,0,0,.339-1.455,5.245,5.245,0,0,0,.4-2.635a2.019,2.019,0,0,0-.221-.84.807.807,0,0,0-.54-.406.977.977,0,0,0-.729.112,2.4,2.4,0,0,0-.682.636,6.467,6.467,0,0,0-.638,1.059,12.038,12.038,0,0,0-.58,1.416A12.534,12.534,0,0,0-3.406.851a6.725,6.725,0,0,0-.16,1.343,2.219,2.219,0,0,0,.182.989.833.833,0,0,0,.613.475,1.033,1.033,0,0,0,.8-.182,3.034,3.034,0,0,0,.764-.785A6.962,6.962,0,0,0-.533,1.469,12.959,12.959,0,0,0,0,0ZM-2.382,7.788q.3-1.026.607-2.051l-.049-.01A5.506,5.506,0,0,1-3.267,7.34a2.6,2.6,0,0,1-2.093.444A2.22,2.22,0,0,1-6.935,6.713a4.669,4.669,0,0,1-.608-2.2,11.169,11.169,0,0,1,.257-2.872,18.971,18.971,0,0,1,.945-3.123A17.284,17.284,0,0,1-5.034-4.147,8.894,8.894,0,0,1-3.572-6,4.664,4.664,0,0,1-2-7.016a2.831,2.831,0,0,1,1.649-.1,2.069,2.069,0,0,1,1.216.75A1.974,1.974,0,0,1,1.3-5.105l.062.015q.866-2.875,1.73-5.736,1.434.388,2.867.823Q3.677-.73,1.393,8.661-.494,8.184-2.382,7.788Z"/>
      </g>
      <g id="Group_343" data-name="Group 343" transform="translate(89.838 -196)">
        <path id="Path_117" data-name="Path 117" class="cls-23" d="M0,0A11.813,11.813,0,0,0,.074-1.508a6.309,6.309,0,0,0-.14-1.248,2.929,2.929,0,0,0-.355-.916,1.145,1.145,0,0,0-.585-.49.775.775,0,0,0-.678.039,1.566,1.566,0,0,0-.545.6A5.074,5.074,0,0,0-2.66-2.477a10.8,10.8,0,0,0-.315,1.43A12.4,12.4,0,0,0-3.121.5a7.549,7.549,0,0,0,.077,1.4A3.134,3.134,0,0,0-2.7,2.968a1.224,1.224,0,0,0,.672.579.781.781,0,0,0,.737-.092,1.967,1.967,0,0,0,.6-.739A5.45,5.45,0,0,0-.258,1.5,11.539,11.539,0,0,0,0,0M-.946,7.977l.231-2.1-.048-.017A3.643,3.643,0,0,1-1.872,7.384a2,2,0,0,1-1.946.185A3.268,3.268,0,0,1-5.532,6.224,6.785,6.785,0,0,1-6.5,3.831,12.506,12.506,0,0,1-6.746.848a17.739,17.739,0,0,1,.384-3.162,14.271,14.271,0,0,1,.81-2.653,6.362,6.362,0,0,1,1.1-1.793,3.038,3.038,0,0,1,1.341-.9,2.42,2.42,0,0,1,1.563.064,2.794,2.794,0,0,1,1.289.921A2.911,2.911,0,0,1,.363-5.287l.061.023q.33-2.971.66-5.939,1.425.543,2.845,1.133Q3.368-.338,2.806,9.4.934,8.65-.946,7.977"/>
      </g>
      <g id="Group_344" data-name="Group 344" transform="translate(89.838 -196)">
        <path id="Path_118" data-name="Path 118" class="cls-24" d="M0,0A11.813,11.813,0,0,0,.074-1.508a6.309,6.309,0,0,0-.14-1.248,2.929,2.929,0,0,0-.355-.916,1.145,1.145,0,0,0-.585-.49.775.775,0,0,0-.678.039,1.566,1.566,0,0,0-.545.6A5.074,5.074,0,0,0-2.66-2.477a10.8,10.8,0,0,0-.315,1.43A12.4,12.4,0,0,0-3.121.5a7.549,7.549,0,0,0,.077,1.4A3.134,3.134,0,0,0-2.7,2.968a1.224,1.224,0,0,0,.672.579.781.781,0,0,0,.737-.092,1.967,1.967,0,0,0,.6-.739A5.45,5.45,0,0,0-.258,1.5,11.539,11.539,0,0,0,0,0ZM-.946,7.977l.231-2.1-.048-.017A3.643,3.643,0,0,1-1.872,7.384a2,2,0,0,1-1.946.185A3.268,3.268,0,0,1-5.532,6.224,6.785,6.785,0,0,1-6.5,3.831,12.506,12.506,0,0,1-6.746.848a17.739,17.739,0,0,1,.384-3.162,14.271,14.271,0,0,1,.81-2.653,6.362,6.362,0,0,1,1.1-1.793,3.038,3.038,0,0,1,1.341-.9,2.42,2.42,0,0,1,1.563.064,2.794,2.794,0,0,1,1.289.921A2.911,2.911,0,0,1,.363-5.287l.061.023q.33-2.971.66-5.939,1.425.543,2.845,1.133Q3.368-.338,2.806,9.4.934,8.65-.946,7.977Z"/>
      </g>
      <g id="Group_345" data-name="Group 345" transform="translate(95.636 -185.342)">
        <path id="Path_119" data-name="Path 119" class="cls-23" d="M0,0,.258-14.875q1.567.69,3.127,1.437l.5,15.23Q1.95.853,0,0M3.413-16.534A1.373,1.373,0,0,1,3-15.358a1.062,1.062,0,0,1-1.187.029,2.675,2.675,0,0,1-1.2-1.125A2.935,2.935,0,0,1,.18-18.02a1.661,1.661,0,0,1,.135-.668,1.1,1.1,0,0,1,.332-.436.877.877,0,0,1,.5-.171,1.368,1.368,0,0,1,.638.144,2.321,2.321,0,0,1,.64.443,3.108,3.108,0,0,1,.5.631,3.748,3.748,0,0,1,.34.744,2.882,2.882,0,0,1,.147.8"/>
      </g>
      <g id="Group_346" data-name="Group 346" transform="translate(95.636 -185.342)">
        <path id="Path_120" data-name="Path 120" class="cls-24" d="M0,0,.258-14.875q1.567.69,3.127,1.437l.5,15.23Q1.95.853,0,0ZM3.413-16.534A1.373,1.373,0,0,1,3-15.358a1.062,1.062,0,0,1-1.187.029,2.675,2.675,0,0,1-1.2-1.125A2.935,2.935,0,0,1,.18-18.02a1.661,1.661,0,0,1,.135-.668,1.1,1.1,0,0,1,.332-.436.877.877,0,0,1,.5-.171,1.368,1.368,0,0,1,.638.144,2.321,2.321,0,0,1,.64.443,3.108,3.108,0,0,1,.5.631,3.748,3.748,0,0,1,.34.744A2.882,2.882,0,0,1,3.413-16.534Z"/>
      </g>
      <g id="Group_347" data-name="Group 347" transform="translate(63.24 -119.673)">
        <path id="Path_121" data-name="Path 121" class="cls-25" d="M0,0-1.743,7.032s-7.019,4.546-9.531-2.755"/>
      </g>
      <g id="Group_348" data-name="Group 348" transform="translate(63.795 -119.535)">
        <path id="Path_122" data-name="Path 122" class="cls-25" d="M0,0-1.743,7.032s4.085,7.3,9.715,2.014"/>
      </g>
      <g id="Group_349" data-name="Group 349" transform="translate(55.619 -136.761)">
        <path id="Path_123" data-name="Path 123" d="M0,0C-.752,3.035-3.236,5.03-5.548,4.457S-9.125.96-8.373-2.074-5.137-7.1-2.825-6.531.752-3.034,0,0"/>
      </g>
      <g id="Group_350" data-name="Group 350" transform="translate(99.363 -113.98)">
        <path id="Path_124" data-name="Path 124" class="cls-26" d="M0,0C-.478,1.927-3.813,2.758-7.452,1.855s-6.2-3.193-5.723-5.12S-9.361-6.021-5.723-5.12.477-1.926,0,0"/>
      </g>
      <g id="Group_351" data-name="Group 351" transform="translate(43.712 -127.77)">
        <path id="Path_125" data-name="Path 125" class="cls-26" d="M0,0C-.477,1.926-3.813,2.757-7.452,1.855s-6.2-3.194-5.723-5.12S-9.361-6.022-5.723-5.12.478-1.927,0,0"/>
      </g>
      <g id="Group_352" data-name="Group 352" transform="translate(87.016 -128.98)">
        <path id="Path_126" data-name="Path 126" d="M0,0C-.752,3.034-3.236,5.03-5.548,4.457S-9.125.96-8.373-2.075-5.137-7.1-2.825-6.532.751-3.035,0,0"/>
      </g>
      <g id="Group_353" data-name="Group 353" transform="translate(81.691 -117.439)">
        <path id="Path_127" data-name="Path 127" class="cls-8" d="M0,0A1.28,1.28,0,0,1-1.551.935a1.279,1.279,0,0,1-.934-1.55,1.28,1.28,0,0,1,1.55-.936A1.281,1.281,0,0,1,0,0"/>
      </g>
      <g id="Group_354" data-name="Group 354" transform="translate(75.329 -115.718)">
        <path id="Path_128" data-name="Path 128" class="cls-8" d="M0,0A1.281,1.281,0,0,1-1.551.935,1.28,1.28,0,0,1-2.485-.616a1.279,1.279,0,0,1,1.55-.935A1.281,1.281,0,0,1,0,0"/>
      </g>
      <g id="Group_355" data-name="Group 355" transform="translate(81.395 -110.918)">
        <path id="Path_129" data-name="Path 129" class="cls-8" d="M0,0A1.282,1.282,0,0,1-1.551.936,1.281,1.281,0,0,1-2.486-.615,1.28,1.28,0,0,1-.935-1.55,1.28,1.28,0,0,1,0,0"/>
      </g>
      <g id="Group_356" data-name="Group 356" transform="translate(45.03 -126.523)">
        <path id="Path_130" data-name="Path 130" class="cls-8" d="M0,0A1.28,1.28,0,1,0,1.551-.935,1.281,1.281,0,0,0,0,0"/>
      </g>
      <g id="Group_357" data-name="Group 357" transform="translate(49.853 -122.031)">
        <path id="Path_131" data-name="Path 131" class="cls-8" d="M0,0A1.28,1.28,0,1,0,1.551-.935,1.281,1.281,0,0,0,0,0"/>
      </g>
      <g id="Group_358" data-name="Group 358" transform="translate(42.248 -120.618)">
        <path id="Path_132" data-name="Path 132" class="cls-8" d="M0,0A1.281,1.281,0,1,0,1.551-.935,1.281,1.281,0,0,0,0,0"/>
      </g>
      <g id="Group_359" data-name="Group 359" transform="translate(84.636 -130.25)">
        <path id="Path_133" data-name="Path 133" class="cls-27" d="M0,0A1.247,1.247,0,0,1-1.509.91,1.247,1.247,0,0,1-2.419-.6,1.247,1.247,0,0,1-.91-1.509,1.246,1.246,0,0,1,0,0"/>
      </g>
      <g id="Group_360" data-name="Group 360" transform="translate(86.163 -132.189)">
        <path id="Path_134" data-name="Path 134" class="cls-27" d="M0,0A.762.762,0,0,1-.922.556a.761.761,0,0,1-.556-.922A.762.762,0,0,1-.556-.922.762.762,0,0,1,0,0"/>
      </g>
      <g id="Group_361" data-name="Group 361" transform="translate(53.333 -138.007)">
        <path id="Path_135" data-name="Path 135" class="cls-27" d="M0,0A1.247,1.247,0,0,1-1.509.91,1.245,1.245,0,0,1-2.418-.6,1.245,1.245,0,0,1-.91-1.509,1.246,1.246,0,0,1,0,0"/>
      </g>
      <g id="Group_362" data-name="Group 362" transform="translate(54.859 -139.946)">
        <path id="Path_136" data-name="Path 136" class="cls-27" d="M0,0A.762.762,0,0,1-.922.556a.762.762,0,0,1-.556-.922A.762.762,0,0,1-.556-.922.76.76,0,0,1,0,0"/>
      </g>
      <g id="Group_363" data-name="Group 363" transform="translate(59.527 -124.532)">
        <path id="Path_137" data-name="Path 137" class="cls-4" d="M0,0S-.84-3.743,2.281-3.854L8.943-2.2S12.9-.339,10.1,2.061C9.68,1.957,2.52,11.231,0,0"/>
      </g>
      <g id="Group_364" data-name="Group 364" transform="translate(60.978 -126.232)">
        <path id="Path_138" data-name="Path 138" class="cls-28" d="M0,0A5.225,5.225,0,0,1,0-2.006C-2.119-1.308-1.452,1.7-1.452,1.7c2.521,11.232,9.681,1.957,10.1,2.061a2.8,2.8,0,0,0,.938-1.3C7.825,4.094,2.18,9.712,0,0"/>
      </g>
      <g id="Group_365" data-name="Group 365" transform="translate(117.144 -115.193)">
        <path id="Path_139" data-name="Path 139" class="cls-5" d="M0,0A9.254,9.254,0,0,0,9.755-8.6a9.251,9.251,0,0,0-8.449-9.848c0-.007,0-.013,0-.02A9.252,9.252,0,0,0,7.488-29.879,9.249,9.249,0,0,0-3.7-36.272l-.032-.07A9.249,9.249,0,0,0-1.919-49.1a9.25,9.25,0,0,0-12.527-2.295c-.039-.038-.08-.075-.119-.114a9.248,9.248,0,0,0-2.767-12.431,9.252,9.252,0,0,0-12.406,1.928c-.083-.039-.169-.074-.253-.113a9.25,9.25,0,0,0-6.9-10.489A9.254,9.254,0,0,0-47.8-66.817c-.138-.012-.275-.016-.412-.027a9.257,9.257,0,0,0-10.022-7.228A9.25,9.25,0,0,0-66.5-65.154c-.187.05-.371.107-.557.159a9.251,9.251,0,0,0-11.74-3.15A9.25,9.25,0,0,0-83.566-57.13c-.194.137-.389.271-.581.41a9.249,9.249,0,0,0-11.938,1.177A9.251,9.251,0,0,0-96.9-43.688c-.154.223-.311.444-.462.669a9.252,9.252,0,0,0-10.661,5.231,9.252,9.252,0,0,0,3.256,11.4c-.034.136-.077.267-.11.4s-.058.271-.09.407a9.251,9.251,0,0,0-8.2,8.559,9.252,9.252,0,0,0,6.985,9.6c.029.27.064.538.1.807A9.252,9.252,0,0,0-110.9,4.254a9.249,9.249,0,0,0,10.007,6.615c.1.212.215.422.322.633a9.25,9.25,0,0,0-.922,11.969,9.251,9.251,0,0,0,11.852,2.7c.14.133.277.27.418.4a9.253,9.253,0,0,0,3.142,11.744A9.257,9.257,0,0,0-73.847,36.6c.127.053.25.114.377.168a9.254,9.254,0,0,0,6.946,10.217,9.252,9.252,0,0,0,11-6.054l.276.018a9.252,9.252,0,0,0,10.071,7.5,9.247,9.247,0,0,0,8.25-9.7c.053-.017.107-.03.16-.046a9.248,9.248,0,0,0,12.148,3.82A9.25,9.25,0,0,0-20.266,30.4c.02-.015.04-.031.06-.045A9.251,9.251,0,0,0-7.33,29.919a9.252,9.252,0,0,0-.141-12.976l.01-.015a9.252,9.252,0,0,0,12.07-4.765A9.253,9.253,0,0,0,0,0Z"/>
      </g>
      <g id="Group_366" data-name="Group 366" transform="translate(118.36 -162.358)">
        <path id="Path_140" data-name="Path 140" class="cls-4" d="M0,0A5.971,5.971,0,1,1,6.659,9.914"/>
      </g>
    </g>
  </g>
</svg>
