<svg xmlns="http://www.w3.org/2000/svg" xmlns:xlink="http://www.w3.org/1999/xlink" viewBox="0 0 446 504">
  <defs>
    <style>
      .cls-1, .cls-18 {
        fill: none;
      }

      .cls-1 {
        stroke: #707070;
        opacity: 0;
      }

      .cls-2, .cls-3, .cls-5 {
        fill: #fc9090;
      }

      .cls-15, .cls-16, .cls-2 {
        opacity: 0.2;
      }

      .cls-10, .cls-3 {
        opacity: 0.5;
      }

      .cls-4 {
        fill: url(#linear-gradient);
      }

      .cls-6 {
        fill: url(#linear-gradient-3);
      }

      .cls-7 {
        fill: url(#linear-gradient-13);
      }

      .cls-16, .cls-8 {
        fill: #fff;
      }

      .cls-9 {
        fill: url(#linear-gradient-19);
      }

      .cls-10, .cls-12 {
        fill: #263238;
      }

      .cls-11 {
        fill: url(#linear-gradient-21);
      }

      .cls-13 {
        fill: #f8c198;
      }

      .cls-14 {
        fill: #56b2bd;
      }

      .cls-17 {
        stroke: none;
      }
    </style>
    <linearGradient id="linear-gradient" x1="0.5" y1="1" x2="0.5" gradientUnits="objectBoundingBox">
      <stop offset="0" stop-color="gray" stop-opacity="0.251"/>
      <stop offset="0.54" stop-color="gray" stop-opacity="0.122"/>
      <stop offset="1" stop-color="gray" stop-opacity="0.102"/>
    </linearGradient>
    <linearGradient id="linear-gradient-3" x1="0.5" y1="1" x2="0.5" gradientUnits="objectBoundingBox">
      <stop offset="0" stop-opacity="0.122"/>
      <stop offset="0.55" stop-opacity="0.09"/>
      <stop offset="1" stop-opacity="0.02"/>
    </linearGradient>
    <linearGradient id="linear-gradient-13" x1="0" y1="0.5" x2="1" y2="0.5" xlink:href="#linear-gradient-3"/>
    <linearGradient id="linear-gradient-19" x1="0" y1="0.5" x2="1" y2="0.5" xlink:href="#linear-gradient"/>
    <linearGradient id="linear-gradient-21" xlink:href="#linear-gradient"/>
  </defs>
  <g id="Group_242" data-name="Group 242" transform="translate(-141 -233)">
    <g id="Rectangle_306" data-name="Rectangle 306" class="cls-1" transform="translate(141 233)">
      <rect class="cls-17" width="446" height="504"/>
      <rect class="cls-18" x="0.5" y="0.5" width="445" height="503"/>
    </g>
    <g id="undraw_welcome_3gvl" transform="translate(184 334)">
      <rect id="Rectangle_247" data-name="Rectangle 247" class="cls-2" width="303.668" height="302.668" transform="translate(28.569)"/>
      <rect id="Rectangle_248" data-name="Rectangle 248" class="cls-3" width="212.164" height="246.565" transform="translate(74.114 28.259)"/>
      <rect id="Rectangle_249" data-name="Rectangle 249" class="cls-4" width="113.035" height="217.374" transform="translate(247.358 43.475)"/>
      <rect id="Rectangle_250" data-name="Rectangle 250" class="cls-4" width="113.035" height="217.374" transform="translate(0 44.303)"/>
      <rect id="Rectangle_251" data-name="Rectangle 251" class="cls-5" width="105.582" height="209.508" transform="translate(251.084 46.787)"/>
      <rect id="Rectangle_252" data-name="Rectangle 252" class="cls-5" width="105.582" height="209.508" transform="translate(109.308 256.295) rotate(180)"/>
      <rect id="Rectangle_253" data-name="Rectangle 253" class="cls-6" width="70.802" height="12.835" transform="translate(21.116 65.833)"/>
      <rect id="Rectangle_254" data-name="Rectangle 254" class="cls-6" width="70.802" height="12.835" transform="translate(268.888 85.294)"/>
      <rect id="Rectangle_255" data-name="Rectangle 255" class="cls-6" width="70.802" height="12.835" transform="translate(268.474 105.168)"/>
      <rect id="Rectangle_256" data-name="Rectangle 256" class="cls-6" width="70.802" height="12.835" transform="translate(268.474 125.042)"/>
      <rect id="Rectangle_257" data-name="Rectangle 257" class="cls-6" width="70.802" height="12.835" transform="translate(268.474 144.916)"/>
      <rect id="Rectangle_258" data-name="Rectangle 258" class="cls-6" width="70.802" height="12.835" transform="translate(268.474 164.79)"/>
      <rect id="Rectangle_259" data-name="Rectangle 259" class="cls-6" width="70.802" height="12.835" transform="translate(268.474 184.665)"/>
      <rect id="Rectangle_260" data-name="Rectangle 260" class="cls-6" width="70.802" height="12.835" transform="translate(268.474 204.539)"/>
      <rect id="Rectangle_261" data-name="Rectangle 261" class="cls-6" width="70.802" height="12.835" transform="translate(268.474 224.413)"/>
      <rect id="Rectangle_262" data-name="Rectangle 262" class="cls-6" width="70.802" height="12.835" transform="translate(268.474 65.833)"/>
      <rect id="Rectangle_263" data-name="Rectangle 263" class="cls-7" width="70.802" height="12.835" transform="translate(21.116 86.122)"/>
      <rect id="Rectangle_264" data-name="Rectangle 264" class="cls-7" width="70.802" height="12.835" transform="translate(21.116 105.582)"/>
      <rect id="Rectangle_265" data-name="Rectangle 265" class="cls-7" width="70.802" height="12.835" transform="translate(21.116 125.042)"/>
      <rect id="Rectangle_266" data-name="Rectangle 266" class="cls-7" width="70.802" height="12.835" transform="translate(21.116 144.916)"/>
      <rect id="Rectangle_267" data-name="Rectangle 267" class="cls-7" width="70.802" height="12.835" transform="translate(21.116 164.79)"/>
      <rect id="Rectangle_268" data-name="Rectangle 268" class="cls-8" width="67.904" height="9.937" transform="translate(22.773 67.49)"/>
      <rect id="Rectangle_269" data-name="Rectangle 269" class="cls-8" width="67.904" height="9.937" transform="translate(22.566 86.95)"/>
      <rect id="Rectangle_270" data-name="Rectangle 270" class="cls-8" width="67.904" height="9.937" transform="translate(22.566 106.824)"/>
      <rect id="Rectangle_271" data-name="Rectangle 271" class="cls-8" width="67.904" height="9.937" transform="translate(22.566 126.698)"/>
      <rect id="Rectangle_272" data-name="Rectangle 272" class="cls-8" width="67.904" height="9.937" transform="translate(22.566 146.572)"/>
      <rect id="Rectangle_273" data-name="Rectangle 273" class="cls-8" width="67.904" height="9.937" transform="translate(22.566 166.447)"/>
      <rect id="Rectangle_274" data-name="Rectangle 274" class="cls-7" width="70.802" height="12.835" transform="translate(21.116 184.665)"/>
      <rect id="Rectangle_275" data-name="Rectangle 275" class="cls-8" width="67.904" height="9.937" transform="translate(22.566 186.321)"/>
      <rect id="Rectangle_276" data-name="Rectangle 276" class="cls-8" width="67.904" height="9.937" transform="translate(22.566 186.321)"/>
      <rect id="Rectangle_277" data-name="Rectangle 277" class="cls-8" width="67.904" height="9.937" transform="translate(22.566 206.195)"/>
      <rect id="Rectangle_278" data-name="Rectangle 278" class="cls-8" width="67.904" height="9.937" transform="translate(22.566 226.069)"/>
      <rect id="Rectangle_279" data-name="Rectangle 279" class="cls-8" width="67.904" height="9.937" transform="translate(270.13 67.076)"/>
      <rect id="Rectangle_280" data-name="Rectangle 280" class="cls-8" width="67.904" height="9.937" transform="translate(270.13 86.95)"/>
      <rect id="Rectangle_281" data-name="Rectangle 281" class="cls-8" width="67.904" height="9.937" transform="translate(270.13 106.824)"/>
      <rect id="Rectangle_282" data-name="Rectangle 282" class="cls-8" width="67.904" height="9.937" transform="translate(270.13 126.698)"/>
      <rect id="Rectangle_283" data-name="Rectangle 283" class="cls-8" width="67.904" height="9.937" transform="translate(270.13 146.572)"/>
      <rect id="Rectangle_284" data-name="Rectangle 284" class="cls-8" width="67.904" height="9.937" transform="translate(270.13 166.447)"/>
      <rect id="Rectangle_285" data-name="Rectangle 285" class="cls-8" width="67.904" height="9.937" transform="translate(270.13 186.321)"/>
      <rect id="Rectangle_286" data-name="Rectangle 286" class="cls-8" width="67.904" height="9.937" transform="translate(270.13 206.195)"/>
      <rect id="Rectangle_287" data-name="Rectangle 287" class="cls-8" width="67.904" height="9.937" transform="translate(270.13 226.069)"/>
      <rect id="Rectangle_288" data-name="Rectangle 288" class="cls-9" width="250.67" height="15.734" transform="translate(54.654 267.06)"/>
      <rect id="Rectangle_289" data-name="Rectangle 289" class="cls-5" width="246.944" height="12.421" transform="translate(56.724 268.716)"/>
      <rect id="Rectangle_290" data-name="Rectangle 290" class="cls-4" width="250.256" height="16.148" transform="translate(55.482 20.702)"/>
      <rect id="Rectangle_291" data-name="Rectangle 291" class="cls-5" width="246.944" height="12.421" transform="translate(56.724 21.944)"/>
      <rect id="Rectangle_292" data-name="Rectangle 292" class="cls-10" width="120.902" height="209.508" transform="translate(120.161 46.787)"/>
      <path id="Path_43" data-name="Path 43" class="cls-11" d="M539.55,410.769c2.912,3.884-1.447,8.471-1.447,8.471l.732.253c-1.077,1.188-5.332,6.55-21.737,30.805-21,31.053-49.309,38.8-49.309,38.8h0a35,35,0,0,0-11.534-5.925v-2.931a34.452,34.452,0,0,0,23-22.143,35.1,35.1,0,0,0,3.8-15.916c0-19.874-16.542-36-36.943-36s-36.943,16.119-36.943,36a35.1,35.1,0,0,0,3.8,15.916,34.452,34.452,0,0,0,23,22.143v2.931a35,35,0,0,0-11.534,5.925h0s-28.317-7.755-49.321-38.809c-16.4-24.255-20.659-29.621-21.737-30.805l.732-.253s-4.346-4.588-1.447-8.471-19.2-8.471-16.662,0,5.794,12.707,5.794,12.707,46.252,72.615,70.4,84.615a33.159,33.159,0,0,0-.857,7.5V529.7h69.536V515.585a33.159,33.159,0,0,0-.857-7.5c24.124-12.007,70.4-84.61,70.4-84.61s3.261-4.236,5.794-12.707S536.651,406.885,539.55,410.769Z" transform="translate(-265.496 -272.871)"/>
      <circle id="Ellipse_25" data-name="Ellipse 25" class="cls-12" cx="35.219" cy="35.219" r="35.219" transform="translate(145.393 135.977)"/>
      <circle id="Ellipse_26" data-name="Ellipse 26" class="cls-13" cx="33.149" cy="33.149" r="33.149" transform="translate(147.463 143.575)"/>
      <circle id="Ellipse_27" data-name="Ellipse 27" class="cls-12" cx="4.145" cy="4.145" r="4.145" transform="translate(163.308 165.325)"/>
      <circle id="Ellipse_28" data-name="Ellipse 28" class="cls-12" cx="4.145" cy="4.145" r="4.145" transform="translate(190.319 165.325)"/>
      <path id="Path_44" data-name="Path 44" class="cls-8" d="M596.986,544.578c0,2.484-4.327,6.563-9.668,6.563s-9.668-4.078-9.668-6.563,4.327-2.418,9.668-2.418S596.986,542.094,596.986,544.578Z" transform="translate(-406.707 -352.667)"/>
      <circle id="Ellipse_29" data-name="Ellipse 29" class="cls-8" cx="1.383" cy="1.383" r="1.383" transform="translate(167.109 168.086)"/>
      <circle id="Ellipse_30" data-name="Ellipse 30" class="cls-8" cx="1.383" cy="1.383" r="1.383" transform="translate(194.462 168.086)"/>
      <path id="Path_45" data-name="Path 45" class="cls-12" d="M578.732,439.264a4.279,4.279,0,0,1-4.049-3.764,4.969,4.969,0,0,1,2.9-4.865,1.416,1.416,0,0,1,.609-.157c.7,0,1.039.828,1.263,1.486a8.309,8.309,0,0,0,3.867,4.969c1.938.944,4.646.46,5.668-1.437a5.491,5.491,0,0,1-2.319-7.6c.617-.981,1.578-1.814,1.772-2.956.356-2.07-1.913-3.577-3.921-4.2-5.8-1.793-26-1.992-27.116,6.658C556.237,436.527,572.368,440.473,578.732,439.264Z" transform="translate(-394.815 -280.941)"/>
      <ellipse id="Ellipse_31" data-name="Ellipse 31" class="cls-13" cx="2.07" cy="5.871" rx="2.07" ry="5.871" transform="matrix(0.93, -0.367, 0.367, 0.93, 144.669, 172.376)"/>
      <ellipse id="Ellipse_32" data-name="Ellipse 32" class="cls-13" cx="5.871" cy="2.07" rx="5.871" ry="2.07" transform="matrix(0.367, -0.93, 0.93, 0.367, 208.386, 181.756)"/>
      <path id="Path_46" data-name="Path 46" class="cls-14" d="M644.754,511.994s26.983-7.577,47.011-37.964,21.063-30.47,21.063-30.47l10.7,4.227s-49.719,80.11-71.125,84.254S644.754,511.994,644.754,511.994Z" transform="translate(-443.267 -294.893)"/>
      <path id="Path_47" data-name="Path 47" class="cls-13" d="M812.83,425.435s4.14-4.488,1.383-8.281,18.3-8.281,15.883,0-5.523,12.421-5.523,12.421Z" transform="translate(-544.229 -276.681)"/>
      <path id="Path_48" data-name="Path 48" class="cls-14" d="M439.607,511.994s-26.983-7.577-47.011-37.964-21.063-30.47-21.063-30.47l-10.7,4.227s49.723,80.11,71.133,84.254S439.607,511.994,439.607,511.994Z" transform="translate(-279.869 -294.893)"/>
      <path id="Path_49" data-name="Path 49" class="cls-13" d="M364.461,425.435s-4.14-4.488-1.383-8.281-18.3-8.281-15.883,0,5.523,12.421,5.523,12.421Z" transform="translate(-271.84 -276.681)"/>
      <g id="Group_217" data-name="Group 217" class="cls-15" transform="translate(163.199 141.202)">
        <path id="Path_50" data-name="Path 50" class="cls-8" d="M624.763,426.25c-.2,1.143-1.159,1.971-1.772,2.956a5.556,5.556,0,0,0,1.375,7.039,5.3,5.3,0,0,1,.352-4.613c.617-.981,1.578-1.813,1.772-2.956a3.244,3.244,0,0,0-1.71-3.147A2.483,2.483,0,0,1,624.763,426.25Z" transform="translate(-596.057 -425.53)"/>
        <path id="Path_51" data-name="Path 51" class="cls-8" d="M600.177,443.076c-.133-.311-.257-.625-.364-.94-.224-.658-.567-1.466-1.263-1.486a1.416,1.416,0,0,0-.609.157,4.969,4.969,0,0,0-2.9,4.865,4.36,4.36,0,0,0,1.851,3.043,3.893,3.893,0,0,1-.124-.625,4.969,4.969,0,0,1,2.9-4.865A1.6,1.6,0,0,1,600.177,443.076Z" transform="translate(-580.096 -434.39)"/>
        <path id="Path_52" data-name="Path 52" class="cls-8" d="M576.122,454.147c-5.035.211-13.158-1.71-17.162-5.8,2.989,6.36,15.34,9.022,20.7,8A4.174,4.174,0,0,1,576.122,454.147Z" transform="translate(-558.96 -438.901)"/>
        <path id="Path_53" data-name="Path 53" class="cls-8" d="M619.041,453.823a4.557,4.557,0,0,1-5.279.878,6.019,6.019,0,0,1-1.532-1.081,7.386,7.386,0,0,0,3.259,3.495c1.938.94,4.646.46,5.668-1.437A4.919,4.919,0,0,1,619.041,453.823Z" transform="translate(-590.174 -441.989)"/>
      </g>
      <path id="Path_54" data-name="Path 54" class="cls-16" d="M731.839,453.213s-49.723,80.11-71.154,84.254a24.979,24.979,0,0,1-3.755.46,21.964,21.964,0,0,0,5.138-.46c21.41-4.14,71.133-84.254,71.133-84.254l-1.11-.393A4.613,4.613,0,0,1,731.839,453.213Z" transform="translate(-452.944 -300.318)"/>
      <path id="Path_55" data-name="Path 55" class="cls-16" d="M362.222,453.213s49.723,80.11,71.154,84.254a24.978,24.978,0,0,0,3.755.46,21.964,21.964,0,0,1-5.138-.46c-21.41-4.14-71.133-84.254-71.133-84.254l1.11-.393A4.632,4.632,0,0,0,362.222,453.213Z" transform="translate(-279.894 -300.318)"/>
      <path id="Path_56" data-name="Path 56" class="cls-14" d="M388.089,506.88h0a33.149,33.149,0,0,1,33.149,33.149v13.813h-66.3V540.029A33.149,33.149,0,0,1,388.089,506.88Z" transform="translate(-207.477 -297.008)"/>
      <path id="Path_57" data-name="Path 57" class="cls-16" d="M596.714,591.8h0a33.532,33.532,0,0,0-3.615.2c.419,0,.8-.025,1.2-.025h0a33.149,33.149,0,0,1,33.148,33.149v13.639h2.418V624.948A33.149,33.149,0,0,0,596.714,591.8Z" transform="translate(-415.712 -381.754)"/>
      <path id="Path_58" data-name="Path 58" class="cls-16" d="M553.259,591.8h0a33.532,33.532,0,0,1,3.615.2c-.419,0-.8-.025-1.2-.025h0a33.149,33.149,0,0,0-33.149,33.149v13.639H520.11V624.948A33.148,33.148,0,0,1,553.258,591.8Z" transform="translate(-373.038 -381.754)"/>
      <rect id="Rectangle_293" data-name="Rectangle 293" class="cls-13" width="19.336" height="23.307" rx="9.668" transform="translate(170.943 200.721)"/>
    </g>
  </g>
</svg>
